<svg xmlns="http://www.w3.org/2000/svg" xmlns:xlink="http://www.w3.org/1999/xlink" width="210" zoomAndPan="magnify" viewBox="0 0 157.5 60" height="80" preserveAspectRatio="xMidYMid meet" version="1.0"><defs><g/><clipPath id="id1"><path d="M 15 6.09375 L 45 6.09375 L 45 23 L 15 23 Z M 15 6.09375 " clip-rule="nonzero"/></clipPath><clipPath id="id2"><path d="M 12.667969 19 L 47.167969 19 L 47.167969 54.09375 L 12.667969 54.09375 Z M 12.667969 19 " clip-rule="nonzero"/></clipPath></defs><path fill="#161c14" d="M 35.472656 20.28125 C 35.015625 20.28125 34.65625 20.316406 34.460938 20.414062 C 33.710938 20.789062 31.394531 22.453125 30.839844 22.914062 C 31.449219 22.757812 33.746094 21.84375 34.398438 21.492188 C 35.089844 21.113281 39.558594 21.75 40.144531 21.835938 C 40.253906 21.425781 40.351562 21.042969 40.21875 20.851562 C 40.164062 20.773438 40.066406 20.726562 39.921875 20.714844 C 39.722656 20.691406 39.417969 20.652344 39.066406 20.609375 C 38.03125 20.476562 36.511719 20.28125 35.472656 20.28125 Z M 32.015625 24.300781 C 32.230469 24.550781 32.71875 25.027344 33.285156 25.105469 C 33.988281 25.203125 34.347656 24.894531 34.761719 24.539062 C 35.058594 24.285156 35.390625 23.996094 35.898438 23.820312 C 36.777344 23.519531 37.585938 24.042969 38.234375 24.464844 C 38.34375 24.535156 38.445312 24.601562 38.539062 24.660156 C 38.4375 24.484375 38.300781 24.273438 38.121094 24.0625 C 37.765625 23.640625 37.1875 23.125 36.4375 23.078125 C 35.320312 23.003906 34.628906 23.636719 34.167969 24.054688 C 34.011719 24.195312 33.878906 24.316406 33.761719 24.382812 C 33.386719 24.59375 32.425781 24.398438 32.015625 24.300781 Z M 33.828125 25.222656 C 34.027344 25.363281 34.511719 25.644531 35.441406 25.835938 C 36.558594 26.0625 37.289062 25.523438 37.679688 25.234375 C 37.734375 25.195312 37.78125 25.160156 37.824219 25.132812 C 38.078125 24.960938 38.417969 25.011719 38.621094 25.042969 C 38.660156 25.046875 38.703125 25.054688 38.734375 25.054688 C 38.71875 25.015625 38.695312 24.953125 38.65625 24.871094 C 38.503906 24.792969 38.34375 24.6875 38.164062 24.570312 C 37.539062 24.167969 36.757812 23.660156 35.941406 23.941406 C 35.457031 24.105469 35.144531 24.375 34.84375 24.632812 C 34.542969 24.894531 34.253906 25.144531 33.828125 25.222656 Z M 35.972656 26.019531 C 35.800781 26.019531 35.613281 26 35.414062 25.960938 C 34.234375 25.71875 33.757812 25.339844 33.652344 25.246094 C 33.535156 25.253906 33.40625 25.25 33.265625 25.230469 C 32.449219 25.121094 31.816406 24.265625 31.789062 24.230469 C 31.773438 24.207031 31.773438 24.179688 31.789062 24.15625 C 31.804688 24.132812 31.832031 24.125 31.855469 24.132812 C 31.871094 24.136719 33.269531 24.511719 33.699219 24.269531 C 33.804688 24.210938 33.933594 24.09375 34.082031 23.960938 C 34.558594 23.527344 35.277344 22.875 36.445312 22.949219 C 37.589844 23.023438 38.421875 24.125 38.753906 24.777344 C 38.808594 24.808594 38.863281 24.832031 38.914062 24.847656 C 38.992188 24.875 39.0625 24.867188 39.136719 24.824219 C 39.601562 24.558594 39.882812 23.066406 40.003906 22.429688 L 40.011719 22.398438 C 40.039062 22.25 40.074219 22.105469 40.113281 21.960938 C 38.351562 21.703125 35.003906 21.308594 34.460938 21.601562 C 34.101562 21.796875 33.128906 22.207031 32.355469 22.511719 C 31.90625 22.6875 31.515625 22.832031 31.226562 22.929688 C 31.066406 22.984375 30.941406 23.019531 30.851562 23.042969 C 30.714844 23.078125 30.660156 23.074219 30.625 23.035156 C 30.617188 23.023438 30.589844 22.976562 30.644531 22.917969 C 30.921875 22.628906 33.570312 20.71875 34.40625 20.300781 C 35.070312 19.964844 37.582031 20.289062 39.085938 20.480469 C 39.433594 20.527344 39.734375 20.566406 39.9375 20.585938 C 40.117188 20.605469 40.246094 20.667969 40.324219 20.78125 C 40.492188 21.019531 40.386719 21.421875 40.265625 21.886719 C 40.261719 21.898438 40.257812 21.914062 40.253906 21.925781 C 40.210938 22.089844 40.167969 22.253906 40.136719 22.421875 L 40.132812 22.457031 C 39.996094 23.164062 39.714844 24.640625 39.199219 24.9375 C 39.09375 24.996094 38.984375 25.007812 38.871094 24.96875 C 38.859375 24.964844 38.847656 24.960938 38.832031 24.957031 C 38.890625 25.101562 38.875 25.125 38.859375 25.148438 C 38.816406 25.199219 38.738281 25.1875 38.601562 25.167969 C 38.40625 25.136719 38.109375 25.09375 37.894531 25.238281 C 37.855469 25.265625 37.8125 25.296875 37.757812 25.335938 C 37.417969 25.589844 36.835938 26.019531 35.972656 26.019531 " fill-opacity="1" fill-rule="nonzero"/><g clip-path="url(#id1)"><path fill="#161c14" d="M 17.667969 14.65625 C 17.367188 15.699219 17.203125 16.742188 17.53125 17.050781 C 17.671875 17.183594 17.90625 17.171875 18.230469 17.019531 C 18.789062 16.753906 18.75 16.117188 18.703125 15.855469 C 18.601562 15.242188 18.203125 14.683594 17.832031 14.640625 C 17.777344 14.636719 17.71875 14.640625 17.667969 14.65625 Z M 15.496094 22.054688 C 15.597656 22.679688 15.679688 22.785156 15.722656 22.792969 C 15.8125 22.808594 16.023438 22.453125 16.230469 22.105469 C 16.703125 21.308594 17.496094 19.976562 18.90625 19.035156 C 19.058594 18.933594 19.171875 18.957031 19.238281 18.996094 C 19.605469 19.203125 19.601562 20.414062 19.582031 20.929688 C 19.867188 20.546875 20.582031 19.628906 21.355469 19.035156 C 21.609375 18.84375 21.855469 18.789062 22.089844 18.882812 C 22.738281 19.136719 23.097656 20.441406 23.234375 21.050781 C 23.328125 20.65625 23.53125 19.914062 23.921875 19.027344 C 24.261719 18.25 24.679688 17.515625 25.15625 16.847656 C 25.753906 16.007812 26.449219 15.265625 27.226562 14.640625 C 27.90625 14.089844 30.292969 12.835938 33 11.914062 C 34.484375 11.410156 35.824219 11.085938 36.980469 10.953125 C 38.367188 10.789062 39.460938 10.90625 40.238281 11.296875 C 41.402344 11.886719 42.375 12.90625 43.128906 14.328125 C 43.761719 15.519531 44.128906 16.769531 44.367188 17.59375 C 44.4375 17.824219 44.496094 18.027344 44.546875 18.191406 C 44.558594 17.792969 44.554688 17.039062 44.433594 16.128906 C 44.269531 14.886719 43.84375 13.085938 42.753906 11.585938 C 41.421875 9.75 39.484375 9.050781 37.429688 8.308594 C 36.628906 8.019531 35.800781 7.722656 35 7.347656 C 32.429688 6.144531 29.847656 6.390625 27.773438 6.585938 C 27.59375 6.601562 27.425781 6.617188 27.257812 6.632812 C 25.355469 6.800781 23.386719 8.558594 22.085938 9.722656 C 21.972656 9.828125 21.859375 9.925781 21.753906 10.019531 C 21.296875 10.421875 20.800781 10.734375 20.324219 11.035156 C 19.453125 11.585938 18.628906 12.105469 18.222656 13.082031 C 18.050781 13.492188 17.863281 14 17.707031 14.515625 C 17.757812 14.511719 17.804688 14.511719 17.847656 14.515625 C 18.328125 14.570312 18.734375 15.242188 18.832031 15.832031 C 18.933594 16.445312 18.734375 16.921875 18.285156 17.132812 C 17.910156 17.3125 17.625 17.316406 17.441406 17.144531 C 17.175781 16.894531 17.152344 16.277344 17.363281 15.316406 C 17.40625 15.125 17.453125 14.933594 17.507812 14.75 C 17.394531 14.84375 17.292969 14.996094 17.203125 15.203125 C 17.066406 15.53125 16.933594 15.839844 16.808594 16.132812 C 15.710938 18.691406 15.164062 19.976562 15.496094 22.054688 Z M 15.726562 22.921875 C 15.71875 22.921875 15.707031 22.921875 15.699219 22.917969 C 15.550781 22.890625 15.464844 22.664062 15.371094 22.078125 C 15.03125 19.960938 15.585938 18.664062 16.691406 16.085938 C 16.816406 15.789062 16.945312 15.480469 17.085938 15.152344 C 17.230469 14.808594 17.402344 14.636719 17.558594 14.5625 C 17.773438 13.84375 18.015625 13.238281 18.101562 13.03125 C 18.527344 12.019531 19.367188 11.488281 20.253906 10.929688 C 20.730469 10.628906 21.21875 10.320312 21.667969 9.925781 C 21.773438 9.832031 21.886719 9.730469 22 9.628906 C 23.316406 8.453125 25.300781 6.675781 27.246094 6.503906 C 27.414062 6.492188 27.582031 6.472656 27.761719 6.457031 C 28.789062 6.359375 29.953125 6.25 31.195312 6.316406 C 32.636719 6.390625 33.898438 6.691406 35.054688 7.230469 C 35.851562 7.605469 36.675781 7.902344 37.472656 8.191406 C 39.546875 8.9375 41.503906 9.644531 42.859375 11.511719 C 43.964844 13.035156 44.394531 14.855469 44.5625 16.117188 C 44.742188 17.480469 44.664062 18.5 44.660156 18.507812 C 44.660156 18.539062 44.636719 18.5625 44.609375 18.566406 C 44.582031 18.570312 44.550781 18.554688 44.539062 18.53125 C 44.453125 18.347656 44.363281 18.03125 44.246094 17.628906 C 43.746094 15.921875 42.820312 12.746094 40.179688 11.410156 C 39.425781 11.03125 38.355469 10.917969 36.996094 11.078125 C 35.847656 11.210938 34.515625 11.535156 33.042969 12.035156 C 30.347656 12.953125 27.980469 14.195312 27.304688 14.738281 C 25.570312 16.136719 24.570312 17.867188 24.039062 19.074219 C 23.464844 20.382812 23.296875 21.371094 23.296875 21.378906 C 23.289062 21.410156 23.261719 21.433594 23.230469 21.433594 C 23.199219 21.433594 23.175781 21.410156 23.167969 21.378906 C 23.164062 21.359375 22.808594 19.300781 22.042969 19 C 21.851562 18.925781 21.652344 18.96875 21.433594 19.136719 C 20.453125 19.886719 19.570312 21.167969 19.5625 21.179688 C 19.546875 21.203125 19.515625 21.214844 19.488281 21.203125 C 19.460938 21.195312 19.441406 21.167969 19.445312 21.140625 C 19.445312 21.136719 19.472656 20.671875 19.453125 20.1875 C 19.414062 19.359375 19.261719 19.15625 19.175781 19.105469 C 19.15625 19.09375 19.09375 19.058594 18.976562 19.140625 C 17.59375 20.066406 16.808594 21.382812 16.339844 22.171875 C 16.058594 22.648438 15.894531 22.921875 15.726562 22.921875 " fill-opacity="1" fill-rule="nonzero"/></g><path fill="#161c14" d="M 35.492188 25.566406 C 35.351562 25.566406 35.210938 25.535156 35.074219 25.472656 C 34.792969 25.339844 34.589844 25.082031 34.53125 24.773438 C 34.523438 24.742188 34.546875 24.707031 34.582031 24.699219 C 34.617188 24.695312 34.648438 24.714844 34.65625 24.75 C 34.707031 25.015625 34.882812 25.242188 35.128906 25.359375 C 35.554688 25.558594 36.0625 25.375 36.261719 24.953125 C 36.4375 24.578125 36.320312 24.136719 35.984375 23.902344 C 35.957031 23.882812 35.949219 23.839844 35.96875 23.8125 C 35.992188 23.785156 36.03125 23.777344 36.058594 23.796875 C 36.445312 24.070312 36.582031 24.578125 36.378906 25.003906 C 36.210938 25.359375 35.859375 25.566406 35.492188 25.566406 " fill-opacity="1" fill-rule="nonzero"/><path fill="#161c14" d="M 43.539062 24.121094 C 43.40625 24.121094 43.269531 24.09375 43.144531 24.03125 C 42.949219 23.941406 42.789062 23.78125 42.695312 23.585938 C 42.683594 23.554688 42.695312 23.515625 42.726562 23.5 C 42.757812 23.488281 42.796875 23.5 42.8125 23.53125 C 42.890625 23.703125 43.03125 23.835938 43.199219 23.917969 C 43.597656 24.105469 44.078125 23.933594 44.265625 23.535156 C 44.425781 23.195312 44.324219 22.78125 44.019531 22.558594 C 43.996094 22.539062 43.988281 22.507812 44 22.476562 C 44.015625 22.445312 44.054688 22.433594 44.085938 22.449219 C 44.089844 22.449219 44.09375 22.453125 44.097656 22.453125 C 44.449219 22.714844 44.566406 23.191406 44.378906 23.589844 C 44.222656 23.921875 43.886719 24.121094 43.539062 24.121094 " fill-opacity="1" fill-rule="nonzero"/><g clip-path="url(#id2)"><path fill="#161c14" d="M 44.953125 19.152344 C 44.949219 19.152344 44.945312 19.152344 44.945312 19.152344 C 44.640625 19.265625 44.140625 19.484375 43.730469 19.734375 C 43.203125 20.054688 42.941406 20.34375 42.96875 20.574219 C 43.003906 20.867188 42.945312 21.175781 42.84375 21.515625 C 43.386719 20.699219 45.050781 20.070312 45.265625 20.027344 C 45.3125 19.976562 45.246094 19.550781 45.078125 19.277344 C 45.023438 19.1875 44.976562 19.152344 44.953125 19.152344 Z M 44.445312 22.386719 C 44.78125 22.386719 45.074219 22.519531 45.570312 22.746094 C 45.863281 22.878906 46.144531 22.882812 46.40625 22.75 C 46.703125 22.601562 46.910156 22.308594 46.988281 22.109375 C 46.84375 22.234375 46.582031 22.4375 46.210938 22.4375 C 45.90625 22.433594 45.710938 22.324219 45.503906 22.207031 C 45.273438 22.074219 45.03125 21.9375 44.582031 21.929688 C 44.582031 21.929688 44.578125 21.929688 44.574219 21.929688 C 44.191406 21.929688 43.746094 22.203125 43.351562 22.675781 C 43.308594 22.730469 43.265625 22.785156 43.226562 22.839844 C 43.371094 22.722656 43.539062 22.617188 43.734375 22.542969 C 44.023438 22.4375 44.242188 22.386719 44.445312 22.386719 Z M 45.484375 23.089844 C 45.480469 23.089844 45.476562 23.09375 45.472656 23.101562 C 45.308594 23.308594 45.273438 23.601562 45.320312 23.945312 C 45.335938 23.925781 45.347656 23.90625 45.359375 23.886719 C 45.574219 23.519531 45.53125 23.152344 45.484375 23.089844 Z M 43.753906 28.851562 C 42.753906 28.851562 40.984375 29.324219 40.550781 29.808594 C 40.539062 29.820312 40.527344 29.835938 40.515625 29.847656 C 40.300781 30.089844 39.789062 30.652344 40.035156 31.152344 C 40.097656 31.28125 40.195312 31.367188 40.332031 31.40625 C 40.640625 31.492188 41.074219 31.320312 41.292969 31.183594 C 41.375 31.132812 41.46875 31.027344 41.566406 30.914062 C 41.78125 30.664062 42.054688 30.351562 42.414062 30.359375 C 42.871094 30.371094 43.101562 30.441406 43.15625 30.582031 C 43.191406 30.675781 43.144531 30.785156 43.011719 30.914062 C 42.957031 30.964844 42.820312 31.097656 42.816406 31.140625 C 42.851562 31.1875 43.136719 31.21875 43.46875 31.257812 C 43.644531 31.277344 43.851562 31.164062 44.074219 30.921875 C 44.140625 30.851562 44.199219 30.773438 44.261719 30.695312 C 44.433594 29.738281 44.457031 29.082031 44.386719 28.996094 C 44.34375 28.945312 44.210938 28.859375 43.808594 28.851562 C 43.789062 28.851562 43.773438 28.851562 43.753906 28.851562 Z M 39.03125 35.359375 C 39.425781 35.398438 41.894531 34.714844 42.886719 34.242188 C 43.105469 34.136719 43.34375 33.777344 43.570312 33.222656 C 43.535156 33.21875 43.503906 33.214844 43.464844 33.207031 C 43.054688 33.144531 42.433594 33.050781 42.0625 33.199219 C 41.816406 33.300781 41.082031 33.765625 40.355469 34.28125 C 39.53125 34.863281 39.105469 35.234375 39.03125 35.359375 Z M 26.757812 24.136719 C 26.722656 24.136719 26.683594 24.136719 26.644531 24.140625 C 25.171875 24.234375 24 26.347656 23.433594 27.597656 C 22.652344 29.324219 22.15625 31.277344 22.179688 32.023438 C 22.214844 33.078125 24.027344 35.851562 24.699219 36.40625 C 24.785156 36.476562 24.828125 36.488281 24.839844 36.488281 C 24.84375 36.472656 24.859375 36.410156 24.796875 36.191406 C 24.5625 35.363281 24.871094 34.050781 25.566406 32.921875 C 26.90625 30.742188 26.835938 28.597656 26.796875 27.445312 C 26.777344 26.890625 26.769531 26.636719 26.917969 26.597656 C 26.949219 26.589844 27.003906 26.585938 27.058594 26.652344 C 27.253906 26.890625 27.398438 28.09375 27.386719 29.386719 C 27.375 30.988281 27.136719 32.355469 26.734375 33.132812 C 26.300781 33.972656 26.035156 34.835938 25.867188 35.503906 C 26.453125 34.625 27.5625 33.59375 28.445312 32.769531 C 28.589844 32.636719 28.730469 32.507812 28.859375 32.386719 C 29.441406 31.535156 29.910156 30.8125 30.058594 30.453125 C 30.375 29.671875 29.878906 26.96875 28.710938 25.359375 C 28.121094 24.546875 27.464844 24.136719 26.757812 24.136719 Z M 42.632812 36.601562 C 42.804688 36.640625 42.960938 36.667969 43.085938 36.683594 C 43.691406 36.761719 44.644531 35.917969 44.910156 35.230469 C 44.984375 35.039062 45.035156 34.785156 44.851562 34.65625 C 44.824219 34.636719 44.710938 34.644531 44.457031 34.800781 C 44.238281 34.9375 43.964844 35.152344 43.6875 35.410156 C 43.289062 35.78125 42.921875 36.195312 42.632812 36.601562 Z M 28.957031 32.46875 C 28.625 32.953125 28.253906 33.484375 27.871094 34.027344 C 26.738281 35.640625 25.566406 37.308594 25.449219 37.792969 C 25.417969 37.925781 25.414062 38.082031 25.429688 38.257812 C 26.035156 37.859375 26.539062 37.304688 26.820312 36.683594 C 27.265625 35.703125 28.171875 34.972656 28.851562 34.53125 C 29.597656 34.046875 30.492188 33.648438 31.128906 33.523438 C 32.960938 33.152344 35.125 30.957031 35.980469 29.515625 C 36.261719 29.042969 36.386719 28.667969 36.328125 28.484375 C 36.324219 28.460938 36.300781 28.394531 36.15625 28.375 C 35.671875 28.308594 34.359375 28.824219 32.648438 29.753906 C 31.179688 30.550781 29.875 31.410156 29.683594 31.707031 C 29.578125 31.867188 29.3125 32.132812 28.957031 32.46875 Z M 17.960938 33.210938 C 18.023438 33.4375 18.410156 34.152344 19.089844 35.121094 C 19.59375 35.835938 20.601562 37.1875 21.734375 38.195312 C 22.566406 38.933594 23.484375 38.941406 24.113281 38.8125 C 24.269531 38.59375 24.355469 38.316406 24.359375 37.988281 C 24.378906 36.601562 23.074219 34.707031 21.511719 33.851562 C 20.179688 33.125 19.5 33.289062 19.003906 33.410156 C 18.644531 33.5 18.355469 33.566406 18.007812 33.253906 C 17.988281 33.234375 17.972656 33.222656 17.960938 33.210938 Z M 14.363281 23.136719 C 14.324219 23.152344 14.199219 23.28125 13.996094 23.726562 C 13.808594 24.136719 13.613281 24.675781 13.445312 25.253906 C 13.195312 26.128906 12.792969 27.828125 12.925781 29.40625 C 13.191406 32.53125 14.363281 34.117188 16.882812 36.488281 C 17.992188 37.53125 19.425781 38.378906 20.917969 38.875 C 21.132812 38.945312 21.332031 39.007812 21.527344 39.058594 C 21.117188 38.679688 20.695312 38.257812 20.277344 37.804688 C 19.085938 36.527344 17.347656 34.414062 15.808594 31.609375 C 14.171875 28.625 14.300781 25.679688 14.371094 24.097656 C 14.382812 23.769531 14.394531 23.488281 14.390625 23.28125 C 14.386719 23.183594 14.371094 23.148438 14.363281 23.136719 Z M 42.0625 38.726562 C 42.0625 38.726562 42.066406 38.730469 42.066406 38.734375 C 42.339844 39.183594 42.625 39.40625 42.910156 39.394531 C 43.398438 39.371094 43.773438 38.683594 43.878906 38.472656 C 43.960938 38.304688 43.980469 38.1875 43.929688 38.140625 C 43.847656 38.0625 43.515625 38.027344 42.199219 38.660156 C 42.152344 38.679688 42.109375 38.703125 42.0625 38.726562 Z M 27.457031 37.550781 C 26.640625 37.550781 26.152344 38.46875 25.683594 39.359375 C 25.675781 39.375 25.667969 39.390625 25.660156 39.402344 C 26.089844 39.371094 26.617188 39.351562 27.222656 39.332031 C 28.410156 39.296875 29.640625 39.261719 30.257812 39.03125 C 30.445312 38.960938 30.660156 38.84375 30.636719 38.6875 C 30.570312 38.242188 28.945312 37.648438 27.53125 37.554688 C 27.507812 37.550781 27.480469 37.550781 27.457031 37.550781 Z M 25.4375 39.550781 C 25.398438 39.554688 25.355469 39.558594 25.316406 39.566406 C 24.648438 39.644531 24.484375 39.773438 24.46875 39.863281 C 24.449219 39.949219 24.523438 40.175781 24.746094 40.566406 C 24.996094 40.34375 25.214844 39.972656 25.4375 39.550781 Z M 21.972656 39.292969 C 22.738281 39.96875 23.429688 40.46875 23.933594 40.699219 C 24.207031 40.824219 24.4375 40.789062 24.644531 40.644531 C 24.425781 40.269531 24.3125 39.980469 24.339844 39.839844 C 24.386719 39.597656 24.792969 39.484375 25.480469 39.417969 C 25.457031 39.265625 25.429688 39.113281 25.40625 38.964844 C 25.375 38.796875 25.34375 38.628906 25.324219 38.472656 C 24.96875 38.683594 24.582031 38.839844 24.1875 38.925781 C 24.074219 39.070312 23.929688 39.1875 23.753906 39.277344 C 23.414062 39.449219 22.761719 39.449219 21.972656 39.292969 Z M 24.8125 40.675781 C 24.878906 40.78125 24.953125 40.902344 25.042969 41.03125 C 25.0625 41.0625 25.082031 41.09375 25.105469 41.125 C 25.140625 41.09375 25.179688 41.058594 25.210938 41.023438 C 25.53125 40.675781 25.566406 40.1875 25.515625 39.679688 C 25.324219 40.027344 25.136719 40.34375 24.921875 40.570312 C 24.886719 40.609375 24.851562 40.644531 24.8125 40.675781 Z M 38.757812 40.699219 C 39.289062 40.820312 40 40.953125 41.03125 41.144531 L 41.484375 41.226562 C 41.761719 41.277344 42.429688 41.132812 43.113281 40.878906 C 43.855469 40.601562 44.402344 40.277344 44.542969 40.027344 C 44.757812 39.648438 44.839844 38.933594 44.921875 38.242188 C 44.964844 37.882812 45.007812 37.507812 45.070312 37.191406 C 45.09375 37.082031 45.140625 36.875 45.199219 36.589844 C 45.644531 34.566406 46.988281 28.414062 46.398438 27.054688 C 46.285156 26.800781 46.167969 26.542969 46.054688 26.292969 C 45.710938 25.542969 45.378906 24.816406 45.242188 24.207031 C 44.734375 24.589844 43.875 24.378906 43.566406 24.25 C 43.429688 24.195312 43.257812 24.21875 43.105469 24.238281 C 42.933594 24.257812 42.773438 24.28125 42.675781 24.191406 C 42.617188 24.132812 42.59375 24.046875 42.601562 23.925781 C 42.609375 23.832031 42.632812 23.730469 42.667969 23.617188 C 42.625 23.65625 42.589844 23.667969 42.550781 23.652344 C 42.515625 23.636719 42.496094 23.597656 42.472656 23.527344 C 42.433594 23.394531 42.402344 23.15625 42.421875 22.867188 C 42.195312 23.738281 42.148438 24.703125 42.898438 25.804688 C 43.691406 26.972656 44.25 27.644531 44.621094 28.089844 C 44.964844 28.507812 45.140625 28.71875 45.1875 28.945312 C 45.230469 29.140625 44.84375 30.101562 44.382812 30.746094 C 44.34375 30.949219 44.300781 31.15625 44.257812 31.363281 C 44.183594 31.699219 44 32.449219 43.746094 33.117188 C 43.820312 33.128906 43.878906 33.132812 43.910156 33.125 C 43.972656 33.113281 44.03125 33.054688 44.097656 32.980469 C 44.21875 32.847656 44.382812 32.667969 44.710938 32.71875 C 44.953125 32.757812 45.167969 32.976562 45.242188 33.269531 C 45.332031 33.605469 45.214844 33.933594 44.929688 34.152344 C 44.347656 34.597656 43.28125 34.925781 42.832031 34.945312 C 42.4375 34.964844 40.101562 35.5 39.632812 35.667969 C 39.988281 35.835938 41.496094 36.332031 42.5 36.570312 C 42.839844 36.085938 43.253906 35.640625 43.597656 35.320312 C 43.773438 35.15625 44.652344 34.363281 44.925781 34.550781 C 45.121094 34.691406 45.160156 34.945312 45.03125 35.273438 C 44.769531 35.949219 43.785156 36.902344 43.070312 36.8125 C 42.933594 36.792969 42.761719 36.757812 42.554688 36.710938 C 42.460938 36.851562 42.375 36.984375 42.300781 37.117188 C 42.058594 37.550781 41.820312 38.148438 42.007812 38.609375 C 42.050781 38.589844 42.097656 38.566406 42.144531 38.542969 C 43.554688 37.867188 43.886719 37.921875 44.015625 38.046875 C 44.117188 38.140625 44.109375 38.296875 43.992188 38.527344 C 43.851562 38.820312 43.457031 39.496094 42.914062 39.519531 C 42.578125 39.535156 42.257812 39.292969 41.957031 38.800781 C 41.953125 38.792969 41.949219 38.789062 41.949219 38.78125 C 41.132812 39.183594 40.234375 39.691406 39.558594 40.070312 L 39.5 40.101562 C 39.277344 40.226562 39.03125 40.425781 38.757812 40.699219 Z M 21.058594 40.707031 C 21.050781 40.707031 21.042969 40.707031 21.035156 40.707031 C 20.484375 40.714844 20.277344 40.832031 20.273438 40.898438 C 20.269531 41.035156 20.835938 41.363281 22.625 41.523438 C 22.882812 41.546875 23.121094 41.558594 23.339844 41.558594 C 22.445312 41.015625 21.628906 40.707031 21.058594 40.707031 Z M 27.027344 46.59375 C 26.953125 46.59375 26.886719 46.597656 26.828125 46.613281 C 26.769531 46.628906 26.75 46.652344 26.75 46.707031 C 26.761719 46.917969 27.136719 47.40625 27.832031 47.941406 C 28.566406 48.5 29.34375 48.867188 29.96875 48.945312 C 30.035156 48.953125 30.101562 48.960938 30.164062 48.96875 C 30.269531 48.980469 30.371094 48.996094 30.464844 49.007812 C 30.269531 48.636719 29.828125 48.144531 29.253906 47.675781 C 28.414062 46.996094 27.574219 46.59375 27.027344 46.59375 Z M 27.402344 48.890625 C 27.035156 48.890625 26.566406 49.007812 26.039062 49.226562 C 25.410156 49.492188 24.796875 49.875 24.578125 50.132812 C 24.511719 50.214844 24.511719 50.253906 24.515625 50.261719 C 24.519531 50.265625 24.625 50.398438 25.667969 50.070312 C 27.269531 49.566406 28.492188 49.453125 29.320312 49.429688 C 28.796875 49.308594 28.289062 49.15625 27.832031 48.964844 C 27.714844 48.917969 27.570312 48.890625 27.402344 48.890625 Z M 30.503906 49.527344 C 31.042969 49.613281 31.574219 49.679688 32.058594 49.742188 C 32.207031 49.761719 32.347656 49.78125 32.488281 49.796875 C 33.066406 49.875 33.6875 50.617188 34.191406 51.402344 C 34.128906 51.25 34.066406 51.09375 34.003906 50.933594 C 33.277344 49.132812 32.527344 47.269531 31.398438 46.871094 C 29.503906 46.203125 27.578125 44.285156 26.601562 43.203125 C 26.003906 42.546875 25.472656 41.878906 25.074219 41.308594 C 24.765625 41.519531 24.328125 41.640625 23.757812 41.675781 C 24.738281 42.324219 25.726562 43.199219 26.441406 44.117188 C 27.214844 45.113281 28.378906 45.902344 29.316406 46.535156 C 30.125 47.078125 30.761719 47.511719 30.921875 47.902344 C 30.992188 48.074219 31.054688 48.222656 31.113281 48.351562 C 31.289062 48.753906 31.375 48.957031 31.28125 49.082031 C 31.207031 49.183594 31.039062 49.195312 30.667969 49.15625 C 30.691406 49.230469 30.703125 49.296875 30.699219 49.359375 C 30.695312 49.457031 30.632812 49.503906 30.503906 49.527344 Z M 35.238281 53.34375 C 35.3125 53.472656 35.394531 53.597656 35.472656 53.710938 C 35.492188 53.734375 35.507812 53.757812 35.523438 53.777344 C 35.492188 53.675781 35.445312 53.542969 35.398438 53.402344 C 35.164062 52.726562 34.734375 51.472656 34.527344 50.121094 C 34.277344 48.46875 34.425781 47.117188 34.976562 46.101562 C 35.769531 44.628906 36.574219 43.308594 37.300781 42.277344 C 37.738281 41.660156 38.140625 41.15625 38.507812 40.769531 C 38.359375 40.730469 38.226562 40.691406 38.101562 40.652344 C 38.011719 40.621094 37.878906 40.582031 37.714844 40.527344 C 36.507812 40.148438 33.292969 39.132812 31 37.941406 C 29.972656 37.40625 29.019531 35.140625 28.839844 34.691406 C 28.183594 35.128906 27.351562 35.824219 26.9375 36.734375 C 26.636719 37.394531 26.09375 37.988281 25.445312 38.398438 C 25.464844 38.570312 25.496094 38.753906 25.53125 38.941406 C 25.550781 39.050781 25.570312 39.160156 25.589844 39.269531 C 26.0625 38.367188 26.605469 37.363281 27.539062 37.425781 C 28.21875 37.472656 29.003906 37.636719 29.636719 37.871094 C 30.035156 38.015625 30.710938 38.3125 30.761719 38.667969 C 30.789062 38.863281 30.636719 39.023438 30.304688 39.148438 C 29.667969 39.390625 28.425781 39.425781 27.226562 39.460938 C 26.644531 39.480469 26.089844 39.496094 25.625 39.535156 C 25.699219 40.113281 25.6875 40.695312 25.304688 41.109375 C 25.265625 41.152344 25.222656 41.191406 25.175781 41.230469 C 25.585938 41.820312 26.121094 42.480469 26.695312 43.117188 C 27.667969 44.191406 29.574219 46.09375 31.441406 46.75 C 32.625 47.167969 33.386719 49.058594 34.125 50.886719 C 34.308594 51.347656 34.488281 51.796875 34.671875 52.214844 C 34.996094 52.800781 35.210938 53.28125 35.238281 53.34375 Z M 35.621094 54.046875 C 35.566406 54.046875 35.503906 53.972656 35.371094 53.785156 C 35.082031 53.382812 34.824219 52.871094 34.570312 52.296875 C 34.035156 51.316406 33.195312 50.019531 32.46875 49.925781 C 32.332031 49.90625 32.191406 49.886719 32.042969 49.871094 C 31.378906 49.785156 30.632812 49.691406 29.894531 49.546875 C 29.886719 49.546875 29.875 49.546875 29.867188 49.546875 C 29.082031 49.546875 27.683594 49.570312 25.707031 50.191406 C 24.679688 50.515625 24.476562 50.425781 24.410156 50.332031 C 24.363281 50.261719 24.386719 50.167969 24.480469 50.054688 C 24.707031 49.777344 25.34375 49.378906 25.992188 49.109375 C 26.460938 48.910156 27.332031 48.617188 27.882812 48.847656 C 28.492188 49.105469 29.195312 49.285156 29.90625 49.421875 C 29.945312 49.421875 29.984375 49.421875 30.023438 49.421875 C 30.3125 49.421875 30.570312 49.417969 30.570312 49.355469 C 30.574219 49.296875 30.558594 49.222656 30.527344 49.140625 C 30.414062 49.128906 30.289062 49.113281 30.148438 49.09375 C 30.085938 49.085938 30.019531 49.078125 29.953125 49.070312 C 29.308594 48.992188 28.507812 48.617188 27.753906 48.039062 C 27.09375 47.535156 26.640625 47 26.625 46.714844 C 26.617188 46.597656 26.679688 46.515625 26.796875 46.488281 C 27.480469 46.328125 28.554688 46.945312 29.332031 47.578125 C 29.871094 48.015625 30.410156 48.582031 30.613281 49.023438 C 30.933594 49.058594 31.136719 49.0625 31.179688 49.003906 C 31.230469 48.941406 31.132812 48.714844 30.996094 48.402344 C 30.9375 48.273438 30.875 48.125 30.804688 47.953125 C 30.65625 47.59375 30.003906 47.152344 29.246094 46.640625 C 28.300781 46.003906 27.125 45.207031 26.339844 44.195312 C 25.660156 43.324219 24.679688 42.433594 23.652344 41.757812 C 23.617188 41.734375 23.578125 41.710938 23.542969 41.683594 C 23.261719 41.691406 22.953125 41.679688 22.613281 41.652344 C 21.078125 41.515625 20.132812 41.226562 20.144531 40.894531 C 20.152344 40.703125 20.476562 40.589844 21.035156 40.582031 C 21.042969 40.582031 21.050781 40.582031 21.058594 40.582031 C 21.714844 40.582031 22.632812 40.960938 23.578125 41.558594 C 24.210938 41.539062 24.679688 41.421875 25 41.203125 C 24.894531 41.042969 24.796875 40.894531 24.710938 40.753906 C 24.449219 40.933594 24.175781 40.953125 23.882812 40.816406 C 23.328125 40.566406 22.5625 40 21.722656 39.238281 C 21.453125 39.171875 21.167969 39.09375 20.878906 38.996094 C 19.367188 38.496094 17.917969 37.636719 16.796875 36.582031 C 14.25 34.183594 13.066406 32.582031 12.800781 29.417969 C 12.667969 27.871094 13.046875 26.207031 13.285156 25.351562 C 13.609375 24.195312 14.035156 23.199219 14.28125 23.035156 C 14.34375 22.996094 14.390625 23.003906 14.421875 23.019531 C 14.484375 23.050781 14.511719 23.132812 14.515625 23.277344 C 14.523438 23.488281 14.511719 23.773438 14.496094 24.101562 C 14.429688 25.671875 14.300781 28.59375 15.921875 31.546875 C 17.453125 34.34375 19.1875 36.445312 20.371094 37.71875 C 20.847656 38.230469 21.324219 38.703125 21.78125 39.121094 C 22.726562 39.335938 23.402344 39.3125 23.695312 39.164062 C 23.804688 39.109375 23.898438 39.042969 23.980469 38.964844 C 23.332031 39.066406 22.453125 39.003906 21.648438 38.289062 C 20.5 37.269531 19.484375 35.90625 18.980469 35.183594 C 18.371094 34.316406 17.78125 33.332031 17.824219 33.128906 C 17.832031 33.09375 17.855469 33.070312 17.882812 33.058594 C 17.9375 33.042969 17.996094 33.070312 18.09375 33.160156 C 18.394531 33.425781 18.625 33.371094 18.972656 33.289062 C 19.492188 33.160156 20.199219 32.992188 21.574219 33.742188 C 23.175781 34.613281 24.507812 36.5625 24.488281 37.992188 C 24.484375 38.292969 24.417969 38.554688 24.292969 38.769531 C 24.644531 38.675781 24.988281 38.527344 25.308594 38.335938 C 25.285156 38.121094 25.285156 37.929688 25.324219 37.765625 C 25.449219 37.253906 26.574219 35.652344 27.765625 33.953125 C 28.019531 33.59375 28.273438 33.230469 28.519531 32.878906 C 27.570312 33.757812 26.242188 34.996094 25.769531 35.917969 C 25.726562 36.121094 25.691406 36.292969 25.664062 36.425781 C 25.648438 36.507812 25.636719 36.574219 25.625 36.617188 C 25.613281 36.679688 25.597656 36.738281 25.535156 36.734375 C 25.46875 36.726562 25.464844 36.671875 25.464844 36.519531 C 25.460938 36.328125 25.53125 36.109375 25.648438 35.875 C 25.804688 35.175781 26.09375 34.097656 26.621094 33.074219 C 27.464844 31.441406 27.335938 27.742188 27.023438 26.863281 C 26.988281 26.761719 26.960938 26.730469 26.949219 26.722656 C 26.902344 26.773438 26.914062 27.125 26.925781 27.441406 C 26.941406 27.996094 26.972656 28.839844 26.824219 29.808594 C 26.648438 30.964844 26.261719 32.035156 25.675781 32.988281 C 25 34.089844 24.695312 35.363281 24.921875 36.15625 C 24.988281 36.398438 24.988281 36.527344 24.921875 36.585938 C 24.894531 36.613281 24.84375 36.632812 24.761719 36.597656 C 24.453125 36.464844 23.75 35.527344 23.210938 34.667969 C 22.503906 33.53125 22.070312 32.546875 22.050781 32.027344 C 22.027344 31.269531 22.527344 29.289062 23.316406 27.546875 C 23.769531 26.546875 24.257812 25.738281 24.769531 25.144531 C 25.382812 24.433594 26.007812 24.050781 26.636719 24.011719 C 27.421875 23.960938 28.175781 24.402344 28.8125 25.285156 C 29.347656 26.019531 29.804688 27.078125 30.066406 28.191406 C 30.304688 29.199219 30.347656 30.082031 30.175781 30.5 C 30.054688 30.796875 29.738281 31.308594 29.316406 31.941406 C 29.4375 31.816406 29.527344 31.710938 29.574219 31.636719 C 29.8125 31.273438 31.304688 30.339844 32.585938 29.640625 C 33.421875 29.191406 35.4375 28.148438 36.171875 28.25 C 36.359375 28.273438 36.429688 28.371094 36.453125 28.445312 C 36.542969 28.730469 36.304688 29.21875 36.089844 29.582031 C 35.628906 30.363281 34.847656 31.269531 34.007812 32.015625 C 33.300781 32.640625 32.234375 33.429688 31.152344 33.648438 C 30.6875 33.742188 29.832031 34.050781 28.949219 34.617188 C 29.09375 34.984375 30.0625 37.308594 31.0625 37.828125 C 33.34375 39.015625 36.546875 40.027344 37.753906 40.40625 C 37.917969 40.460938 38.050781 40.5 38.144531 40.53125 C 38.28125 40.574219 38.433594 40.617188 38.609375 40.664062 C 38.914062 40.355469 39.1875 40.128906 39.4375 39.992188 L 39.496094 39.960938 C 40.171875 39.578125 41.074219 39.074219 41.890625 38.667969 C 41.65625 38.105469 41.960938 37.363281 42.421875 36.679688 C 42.007812 36.582031 41.492188 36.4375 40.925781 36.257812 C 40.539062 36.136719 40.179688 36.015625 39.914062 35.917969 C 39.777344 35.867188 39.671875 35.824219 39.597656 35.792969 C 39.488281 35.742188 39.441406 35.710938 39.445312 35.660156 C 39.449219 35.605469 39.5 35.582031 39.617188 35.542969 C 39.695312 35.515625 39.808594 35.480469 39.957031 35.441406 C 40.222656 35.367188 40.59375 35.273438 41.003906 35.179688 C 41.746094 35.007812 42.609375 34.828125 42.824219 34.820312 C 43.195312 34.804688 44.246094 34.515625 44.851562 34.050781 C 45.09375 33.867188 45.191406 33.585938 45.121094 33.300781 C 45.058594 33.058594 44.882812 32.875 44.6875 32.84375 C 44.429688 32.804688 44.308594 32.9375 44.191406 33.066406 C 44.113281 33.152344 44.039062 33.234375 43.933594 33.25 C 43.882812 33.261719 43.800781 33.253906 43.699219 33.242188 C 43.488281 33.765625 43.230469 34.21875 42.941406 34.359375 C 42.070312 34.773438 39.660156 35.488281 39.058594 35.488281 C 39.015625 35.488281 38.980469 35.484375 38.957031 35.476562 C 38.917969 35.460938 38.890625 35.429688 38.890625 35.386719 C 38.890625 35.324219 38.9375 35.222656 39.316406 34.90625 C 39.550781 34.710938 39.875 34.464844 40.253906 34.195312 C 40.902344 33.734375 41.714844 33.207031 42.015625 33.082031 C 42.417969 32.917969 43.035156 33.011719 43.484375 33.082031 C 43.53125 33.089844 43.574219 33.09375 43.617188 33.101562 C 43.800781 32.628906 43.976562 32.027344 44.128906 31.335938 C 44.160156 31.207031 44.183594 31.082031 44.210938 30.960938 C 44.195312 30.976562 44.183594 30.992188 44.171875 31.003906 C 43.917969 31.285156 43.675781 31.410156 43.453125 31.382812 C 42.917969 31.320312 42.738281 31.300781 42.695312 31.179688 C 42.664062 31.082031 42.757812 30.980469 42.921875 30.824219 C 43.011719 30.738281 43.050781 30.667969 43.035156 30.628906 C 43.023438 30.589844 42.933594 30.503906 42.410156 30.488281 C 42.109375 30.480469 41.871094 30.753906 41.664062 30.996094 C 41.554688 31.121094 41.457031 31.230469 41.363281 31.292969 C 41.15625 31.421875 40.671875 31.632812 40.296875 31.527344 C 40.125 31.476562 40 31.371094 39.917969 31.207031 C 39.636719 30.632812 40.1875 30.023438 40.421875 29.761719 C 40.433594 29.75 40.445312 29.738281 40.457031 29.726562 C 40.925781 29.199219 42.773438 28.707031 43.808594 28.726562 C 44.15625 28.730469 44.386719 28.792969 44.484375 28.914062 C 44.511719 28.949219 44.597656 29.050781 44.523438 29.785156 C 44.503906 29.984375 44.472656 30.207031 44.433594 30.4375 C 44.816406 29.828125 45.085938 29.089844 45.0625 28.972656 C 45.019531 28.773438 44.851562 28.574219 44.519531 28.171875 C 44.148438 27.722656 43.589844 27.046875 42.789062 25.875 C 41.757812 24.359375 42.203125 23.046875 42.554688 21.992188 C 42.738281 21.457031 42.890625 20.996094 42.84375 20.589844 C 42.75 19.84375 44.8125 19.066406 44.898438 19.03125 C 44.941406 19.015625 45.011719 19.011719 45.089844 19.085938 C 45.273438 19.253906 45.457031 19.828125 45.394531 20.042969 C 45.371094 20.125 45.320312 20.148438 45.289062 20.152344 C 45.097656 20.1875 43.414062 20.832031 42.929688 21.621094 C 42.644531 22.082031 42.566406 22.558594 42.546875 22.875 C 42.53125 23.191406 42.570312 23.417969 42.597656 23.507812 C 42.628906 23.476562 42.671875 23.425781 42.707031 23.378906 C 42.746094 23.332031 42.785156 23.28125 42.832031 23.230469 C 42.941406 23.015625 43.085938 22.792969 43.253906 22.597656 C 43.5 22.300781 44 21.804688 44.574219 21.804688 C 44.578125 21.804688 44.582031 21.804688 44.585938 21.804688 C 45.066406 21.808594 45.332031 21.960938 45.570312 22.097656 C 45.769531 22.210938 45.9375 22.308594 46.210938 22.308594 C 46.210938 22.308594 46.214844 22.308594 46.214844 22.308594 C 46.570312 22.308594 46.8125 22.09375 46.941406 21.976562 C 47.015625 21.914062 47.058594 21.875 47.109375 21.90625 C 47.164062 21.9375 47.148438 22.003906 47.140625 22.046875 C 47.09375 22.269531 46.851562 22.671875 46.460938 22.867188 C 46.167969 23.011719 45.839844 23.011719 45.515625 22.863281 C 44.714844 22.496094 44.496094 22.398438 43.777344 22.664062 C 43.410156 22.800781 43.128906 23.078125 42.9375 23.304688 C 42.816406 23.535156 42.742188 23.757812 42.730469 23.933594 C 42.726562 24.015625 42.738281 24.070312 42.765625 24.097656 C 42.816406 24.144531 42.949219 24.128906 43.089844 24.109375 C 43.257812 24.089844 43.449219 24.0625 43.617188 24.132812 C 43.988281 24.285156 44.792969 24.433594 45.210938 24.066406 C 45.136719 23.640625 45.167969 23.28125 45.371094 23.019531 C 45.433594 22.941406 45.503906 22.945312 45.546875 22.976562 C 45.6875 23.070312 45.707031 23.542969 45.46875 23.953125 C 45.433594 24.011719 45.394531 24.066406 45.351562 24.109375 C 45.476562 24.71875 45.816406 25.464844 46.171875 26.242188 C 46.285156 26.492188 46.402344 26.75 46.515625 27.003906 C 46.773438 27.601562 46.710938 29.136719 46.316406 31.566406 C 46 33.53125 45.546875 35.617188 45.328125 36.617188 C 45.265625 36.902344 45.21875 37.105469 45.199219 37.214844 C 45.136719 37.527344 45.09375 37.898438 45.050781 38.257812 C 44.964844 38.960938 44.878906 39.691406 44.652344 40.089844 C 44.421875 40.503906 43.449219 40.890625 43.160156 41 C 42.5625 41.222656 41.808594 41.417969 41.460938 41.351562 L 41.007812 41.269531 C 39.925781 41.070312 39.195312 40.933594 38.652344 40.804688 C 37.671875 41.828125 36.402344 43.71875 35.089844 46.160156 C 33.835938 48.480469 35.058594 52.027344 35.519531 53.363281 C 35.707031 53.910156 35.738281 53.996094 35.65625 54.035156 C 35.644531 54.042969 35.632812 54.046875 35.621094 54.046875 " fill-opacity="1" fill-rule="nonzero"/></g><path fill="#161c14" d="M 18.535156 20.980469 C 18.425781 21.277344 18.117188 21.605469 17.730469 22.019531 C 17 22.800781 16.003906 23.867188 15.617188 25.453125 C 15.195312 27.164062 15.933594 29.785156 16.890625 31.328125 C 17.386719 32.125 17.929688 32.628906 18.417969 32.738281 C 18.746094 32.8125 20.105469 32.96875 20.3125 32.671875 C 20.351562 32.609375 20.335938 32.519531 20.257812 32.40625 C 19.292969 30.992188 18.640625 29.570312 18.320312 28.1875 C 17.980469 26.710938 18.105469 25.660156 18.269531 25.039062 C 18.433594 24.414062 18.757812 23.691406 19.175781 22.992188 C 18.636719 22.238281 18.566406 21.367188 18.535156 20.980469 Z M 19.539062 32.976562 C 19.488281 32.976562 19.4375 32.972656 19.386719 32.972656 C 18.957031 32.957031 18.527344 32.894531 18.390625 32.863281 C 17.859375 32.742188 17.300781 32.234375 16.78125 31.394531 C 15.8125 29.828125 15.0625 27.167969 15.492188 25.421875 C 15.890625 23.804688 16.898438 22.722656 17.636719 21.933594 C 18.019531 21.519531 18.328125 21.195312 18.421875 20.921875 C 18.476562 20.761719 18.503906 20.695312 18.574219 20.703125 C 18.644531 20.710938 18.648438 20.773438 18.664062 20.96875 C 18.691406 21.332031 18.757812 22.15625 19.25 22.871094 C 19.402344 22.621094 19.566406 22.375 19.742188 22.140625 C 20.453125 21.179688 21.148438 20.59375 21.648438 20.539062 C 22.363281 20.460938 22.648438 22.398438 22.875 23.957031 C 22.957031 24.523438 23.050781 25.164062 23.125 25.273438 C 23.207031 25.230469 23.238281 25.113281 23.304688 24.808594 C 23.402344 24.371094 23.566406 23.636719 24.132812 22.429688 C 24.597656 21.433594 24.976562 20.71875 25.609375 20.582031 C 26.277344 20.441406 27.210938 20.957031 28.835938 22.359375 C 29.546875 22.976562 30.105469 23.746094 30.488281 24.652344 C 30.824219 25.445312 31.023438 26.3125 31.078125 27.242188 C 31.128906 28.046875 31.0625 28.863281 30.894531 29.601562 C 30.738281 30.285156 30.496094 30.859375 30.21875 31.222656 C 30.195312 31.25 30.15625 31.253906 30.128906 31.234375 C 30.097656 31.210938 30.09375 31.171875 30.117188 31.144531 C 30.59375 30.527344 31.058594 29.046875 30.949219 27.25 C 30.832031 25.277344 30.050781 23.578125 28.753906 22.457031 C 27.160156 21.082031 26.257812 20.578125 25.636719 20.707031 C 25.0625 20.832031 24.699219 21.519531 24.25 22.484375 C 23.6875 23.679688 23.527344 24.402344 23.429688 24.835938 C 23.355469 25.171875 23.316406 25.34375 23.152344 25.402344 C 23.125 25.414062 23.09375 25.410156 23.070312 25.394531 C 22.953125 25.328125 22.890625 24.972656 22.746094 23.976562 C 22.644531 23.277344 22.519531 22.40625 22.339844 21.738281 C 22.140625 21 21.910156 20.640625 21.664062 20.667969 C 21.039062 20.734375 20.074219 21.761719 19.328125 22.984375 C 19.46875 23.164062 19.636719 23.335938 19.84375 23.492188 C 20.953125 24.320312 22.21875 25.84375 22.453125 27.636719 C 22.554688 28.398438 22.332031 29.070312 22.117188 29.71875 C 21.796875 30.679688 21.496094 31.585938 22.320312 32.636719 C 22.339844 32.664062 22.335938 32.703125 22.308594 32.722656 C 22.28125 32.746094 22.242188 32.742188 22.21875 32.714844 C 21.351562 31.609375 21.664062 30.671875 21.992188 29.679688 C 22.207031 29.042969 22.421875 28.386719 22.328125 27.652344 C 22.097656 25.898438 20.855469 24.40625 19.769531 23.59375 C 19.566406 23.445312 19.398438 23.277344 19.257812 23.101562 C 18.875 23.746094 18.558594 24.441406 18.390625 25.074219 C 18.195312 25.8125 17.761719 28.515625 20.363281 32.335938 C 20.472656 32.496094 20.492188 32.632812 20.417969 32.742188 C 20.3125 32.898438 20.015625 32.976562 19.539062 32.976562 " fill-opacity="1" fill-rule="nonzero"/><g fill="#161c14" fill-opacity="1"><g transform="translate(54.664917, 27.061754)"><g><path d="M 0.859375 -8.625 C 1.359375 -8.625 1.851562 -8.625 2.34375 -8.625 C 2.84375 -8.632812 3.300781 -8.640625 3.71875 -8.640625 C 4.132812 -8.648438 4.488281 -8.660156 4.78125 -8.671875 C 5.070312 -8.691406 5.269531 -8.710938 5.375 -8.734375 L 5.078125 -7.921875 C 4.941406 -7.960938 4.785156 -8 4.609375 -8.03125 C 4.460938 -8.050781 4.28125 -8.070312 4.0625 -8.09375 C 3.84375 -8.113281 3.59375 -8.125 3.3125 -8.125 C 3.207031 -8.125 3.085938 -8.117188 2.953125 -8.109375 C 2.816406 -8.109375 2.691406 -8.101562 2.578125 -8.09375 C 2.429688 -8.082031 2.28125 -8.078125 2.125 -8.078125 L 2.125 -4.78125 C 2.539062 -4.789062 2.914062 -4.804688 3.25 -4.828125 C 3.582031 -4.847656 3.863281 -4.863281 4.09375 -4.875 C 4.375 -4.90625 4.617188 -4.9375 4.828125 -4.96875 L 4.640625 -4.09375 C 4.359375 -4.125 4.070312 -4.160156 3.78125 -4.203125 C 3.53125 -4.222656 3.257812 -4.242188 2.96875 -4.265625 C 2.675781 -4.285156 2.394531 -4.296875 2.125 -4.296875 L 2.125 -0.53125 C 2.601562 -0.53125 3.039062 -0.550781 3.4375 -0.59375 C 3.832031 -0.632812 4.179688 -0.679688 4.484375 -0.734375 C 4.828125 -0.785156 5.140625 -0.847656 5.421875 -0.921875 L 5.25 0.046875 C 5.195312 0.046875 5.125 0.0390625 5.03125 0.03125 C 4.9375 0.03125 4.828125 0.0234375 4.703125 0.015625 C 4.585938 0.015625 4.460938 0.015625 4.328125 0.015625 C 4.203125 0.015625 4.082031 0.0078125 3.96875 0 C 3.851562 0 3.75 0 3.65625 0 C 3.5625 0 3.5 0 3.46875 0 L 0.859375 0 L 0.859375 -0.03125 C 0.878906 -0.113281 0.898438 -0.21875 0.921875 -0.34375 C 0.953125 -0.46875 0.972656 -0.617188 0.984375 -0.796875 C 1.003906 -0.984375 1.015625 -1.203125 1.015625 -1.453125 C 1.023438 -1.710938 1.03125 -2.015625 1.03125 -2.359375 L 1.03125 -6.265625 C 1.03125 -6.609375 1.023438 -6.90625 1.015625 -7.15625 C 1.015625 -7.414062 1.003906 -7.640625 0.984375 -7.828125 C 0.972656 -8.015625 0.953125 -8.171875 0.921875 -8.296875 C 0.898438 -8.421875 0.878906 -8.523438 0.859375 -8.609375 Z M 0.859375 -8.625 "/></g></g></g><g fill="#161c14" fill-opacity="1"><g transform="translate(61.764904, 27.061754)"><g><path d="M 4.453125 -7.265625 L 4.328125 -7.265625 C 4.296875 -7.347656 4.242188 -7.445312 4.171875 -7.5625 C 4.097656 -7.6875 4.003906 -7.796875 3.890625 -7.890625 C 3.773438 -7.992188 3.632812 -8.082031 3.46875 -8.15625 C 3.3125 -8.226562 3.125 -8.265625 2.90625 -8.265625 C 2.707031 -8.265625 2.53125 -8.234375 2.375 -8.171875 C 2.226562 -8.109375 2.101562 -8.019531 2 -7.90625 C 1.894531 -7.800781 1.816406 -7.675781 1.765625 -7.53125 C 1.710938 -7.382812 1.6875 -7.21875 1.6875 -7.03125 C 1.6875 -6.75 1.765625 -6.472656 1.921875 -6.203125 C 2.085938 -5.941406 2.289062 -5.679688 2.53125 -5.421875 C 2.78125 -5.171875 3.046875 -4.914062 3.328125 -4.65625 C 3.617188 -4.40625 3.882812 -4.140625 4.125 -3.859375 C 4.375 -3.578125 4.578125 -3.285156 4.734375 -2.984375 C 4.898438 -2.679688 4.984375 -2.359375 4.984375 -2.015625 C 4.984375 -1.753906 4.9375 -1.488281 4.84375 -1.21875 C 4.757812 -0.957031 4.625 -0.722656 4.4375 -0.515625 C 4.25 -0.304688 4.003906 -0.132812 3.703125 0 C 3.410156 0.125 3.0625 0.1875 2.65625 0.1875 C 2.425781 0.1875 2.207031 0.164062 2 0.125 C 1.789062 0.0820312 1.597656 0.03125 1.421875 -0.03125 C 1.242188 -0.09375 1.085938 -0.160156 0.953125 -0.234375 C 0.816406 -0.304688 0.703125 -0.375 0.609375 -0.4375 L 0.75 -1.765625 L 0.90625 -1.765625 C 0.945312 -1.578125 1.015625 -1.394531 1.109375 -1.21875 C 1.210938 -1.050781 1.335938 -0.898438 1.484375 -0.765625 C 1.628906 -0.640625 1.796875 -0.535156 1.984375 -0.453125 C 2.179688 -0.378906 2.390625 -0.34375 2.609375 -0.34375 C 2.816406 -0.34375 3 -0.375 3.15625 -0.4375 C 3.320312 -0.5 3.460938 -0.582031 3.578125 -0.6875 C 3.691406 -0.800781 3.78125 -0.929688 3.84375 -1.078125 C 3.90625 -1.234375 3.9375 -1.40625 3.9375 -1.59375 C 3.9375 -1.84375 3.890625 -2.070312 3.796875 -2.28125 C 3.710938 -2.5 3.59375 -2.703125 3.4375 -2.890625 C 3.289062 -3.085938 3.117188 -3.273438 2.921875 -3.453125 C 2.734375 -3.640625 2.539062 -3.820312 2.34375 -4 C 2.144531 -4.1875 1.945312 -4.375 1.75 -4.5625 C 1.5625 -4.757812 1.390625 -4.96875 1.234375 -5.1875 C 1.085938 -5.40625 0.96875 -5.640625 0.875 -5.890625 C 0.78125 -6.140625 0.734375 -6.414062 0.734375 -6.71875 C 0.734375 -7.03125 0.796875 -7.3125 0.921875 -7.5625 C 1.046875 -7.820312 1.207031 -8.039062 1.40625 -8.21875 C 1.613281 -8.40625 1.84375 -8.546875 2.09375 -8.640625 C 2.351562 -8.734375 2.617188 -8.78125 2.890625 -8.78125 C 3.097656 -8.78125 3.285156 -8.765625 3.453125 -8.734375 C 3.617188 -8.703125 3.769531 -8.664062 3.90625 -8.625 C 4.039062 -8.582031 4.15625 -8.535156 4.25 -8.484375 C 4.351562 -8.441406 4.4375 -8.410156 4.5 -8.390625 Z M 4.453125 -7.265625 "/></g></g></g><g fill="#161c14" fill-opacity="1"><g transform="translate(68.431759, 27.061754)"><g><path d="M 3.125 -8.109375 C 2.65625 -8.109375 2.226562 -8.082031 1.84375 -8.03125 C 1.46875 -7.988281 1.140625 -7.945312 0.859375 -7.90625 C 0.535156 -7.84375 0.25 -7.773438 0 -7.703125 L 0.171875 -8.6875 C 0.222656 -8.675781 0.296875 -8.664062 0.390625 -8.65625 C 0.484375 -8.65625 0.585938 -8.65625 0.703125 -8.65625 C 0.828125 -8.65625 0.953125 -8.648438 1.078125 -8.640625 C 1.210938 -8.640625 1.335938 -8.640625 1.453125 -8.640625 C 1.566406 -8.640625 1.671875 -8.632812 1.765625 -8.625 C 1.859375 -8.625 1.925781 -8.625 1.96875 -8.625 L 5.40625 -8.625 C 5.4375 -8.625 5.5 -8.625 5.59375 -8.625 C 5.6875 -8.632812 5.789062 -8.640625 5.90625 -8.640625 C 6.019531 -8.640625 6.140625 -8.640625 6.265625 -8.640625 C 6.398438 -8.648438 6.523438 -8.65625 6.640625 -8.65625 C 6.765625 -8.65625 6.875 -8.65625 6.96875 -8.65625 C 7.0625 -8.664062 7.132812 -8.675781 7.1875 -8.6875 L 7.359375 -7.703125 C 7.109375 -7.773438 6.820312 -7.84375 6.5 -7.90625 C 6.21875 -7.945312 5.882812 -7.988281 5.5 -8.03125 C 5.125 -8.082031 4.695312 -8.109375 4.21875 -8.109375 L 4.21875 -2.359375 C 4.21875 -2.015625 4.222656 -1.710938 4.234375 -1.453125 C 4.242188 -1.203125 4.253906 -0.984375 4.265625 -0.796875 C 4.285156 -0.617188 4.304688 -0.46875 4.328125 -0.34375 C 4.347656 -0.21875 4.375 -0.113281 4.40625 -0.03125 L 4.40625 0 L 2.96875 0 L 2.96875 -0.03125 C 2.988281 -0.113281 3.007812 -0.21875 3.03125 -0.34375 C 3.050781 -0.46875 3.066406 -0.617188 3.078125 -0.796875 C 3.097656 -0.984375 3.109375 -1.203125 3.109375 -1.453125 C 3.117188 -1.710938 3.125 -2.015625 3.125 -2.359375 Z M 3.125 -8.109375 "/></g></g></g><g fill="#161c14" fill-opacity="1"><g transform="translate(76.849189, 27.061754)"><g><path d="M 6.828125 -4.125 C 6.671875 -4.132812 6.472656 -4.140625 6.234375 -4.140625 C 5.992188 -4.140625 5.726562 -4.140625 5.4375 -4.140625 C 5.15625 -4.148438 4.859375 -4.15625 4.546875 -4.15625 C 4.242188 -4.15625 3.945312 -4.15625 3.65625 -4.15625 C 3.363281 -4.164062 3.082031 -4.164062 2.8125 -4.15625 C 2.550781 -4.15625 2.320312 -4.148438 2.125 -4.140625 L 2.125 -2.359375 C 2.125 -2.015625 2.128906 -1.710938 2.140625 -1.453125 C 2.148438 -1.203125 2.160156 -0.984375 2.171875 -0.796875 C 2.191406 -0.617188 2.210938 -0.46875 2.234375 -0.34375 C 2.253906 -0.21875 2.28125 -0.113281 2.3125 -0.03125 L 2.3125 0 L 0.859375 0 L 0.859375 -0.03125 C 0.878906 -0.113281 0.898438 -0.21875 0.921875 -0.34375 C 0.953125 -0.46875 0.972656 -0.617188 0.984375 -0.796875 C 1.003906 -0.984375 1.015625 -1.203125 1.015625 -1.453125 C 1.023438 -1.710938 1.03125 -2.015625 1.03125 -2.359375 L 1.03125 -6.265625 C 1.03125 -6.609375 1.023438 -6.90625 1.015625 -7.15625 C 1.015625 -7.414062 1.003906 -7.640625 0.984375 -7.828125 C 0.972656 -8.015625 0.953125 -8.171875 0.921875 -8.296875 C 0.898438 -8.421875 0.878906 -8.523438 0.859375 -8.609375 L 0.859375 -8.625 L 2.3125 -8.625 L 2.3125 -8.609375 C 2.28125 -8.523438 2.253906 -8.421875 2.234375 -8.296875 C 2.210938 -8.171875 2.191406 -8.015625 2.171875 -7.828125 C 2.160156 -7.640625 2.148438 -7.414062 2.140625 -7.15625 C 2.128906 -6.90625 2.125 -6.609375 2.125 -6.265625 L 2.125 -4.734375 C 2.332031 -4.722656 2.566406 -4.71875 2.828125 -4.71875 C 3.097656 -4.71875 3.378906 -4.71875 3.671875 -4.71875 C 3.960938 -4.71875 4.253906 -4.71875 4.546875 -4.71875 C 4.847656 -4.726562 5.140625 -4.734375 5.421875 -4.734375 C 5.703125 -4.742188 5.960938 -4.753906 6.203125 -4.765625 C 6.441406 -4.773438 6.648438 -4.78125 6.828125 -4.78125 L 6.828125 -6.265625 C 6.828125 -6.609375 6.820312 -6.90625 6.8125 -7.15625 C 6.800781 -7.414062 6.789062 -7.640625 6.78125 -7.828125 C 6.769531 -8.015625 6.75 -8.171875 6.71875 -8.296875 C 6.695312 -8.421875 6.675781 -8.523438 6.65625 -8.609375 L 6.65625 -8.625 L 8.109375 -8.625 L 8.109375 -8.609375 C 8.078125 -8.523438 8.050781 -8.421875 8.03125 -8.296875 C 8.007812 -8.171875 7.988281 -8.015625 7.96875 -7.828125 C 7.957031 -7.640625 7.945312 -7.414062 7.9375 -7.15625 C 7.925781 -6.90625 7.921875 -6.609375 7.921875 -6.265625 L 7.921875 -2.359375 C 7.921875 -2.015625 7.925781 -1.710938 7.9375 -1.453125 C 7.945312 -1.203125 7.957031 -0.984375 7.96875 -0.796875 C 7.988281 -0.617188 8.007812 -0.46875 8.03125 -0.34375 C 8.050781 -0.21875 8.078125 -0.113281 8.109375 -0.03125 L 8.109375 0 L 6.65625 0 L 6.65625 -0.03125 C 6.675781 -0.113281 6.695312 -0.21875 6.71875 -0.34375 C 6.75 -0.46875 6.769531 -0.617188 6.78125 -0.796875 C 6.789062 -0.984375 6.800781 -1.203125 6.8125 -1.453125 C 6.820312 -1.710938 6.828125 -2.015625 6.828125 -2.359375 Z M 6.828125 -4.125 "/></g></g></g><g fill="#161c14" fill-opacity="1"><g transform="translate(86.866805, 27.061754)"><g><path d="M 0.859375 -8.625 C 1.359375 -8.625 1.851562 -8.625 2.34375 -8.625 C 2.84375 -8.632812 3.300781 -8.640625 3.71875 -8.640625 C 4.132812 -8.648438 4.488281 -8.660156 4.78125 -8.671875 C 5.070312 -8.691406 5.269531 -8.710938 5.375 -8.734375 L 5.078125 -7.921875 C 4.941406 -7.960938 4.785156 -8 4.609375 -8.03125 C 4.460938 -8.050781 4.28125 -8.070312 4.0625 -8.09375 C 3.84375 -8.113281 3.59375 -8.125 3.3125 -8.125 C 3.207031 -8.125 3.085938 -8.117188 2.953125 -8.109375 C 2.816406 -8.109375 2.691406 -8.101562 2.578125 -8.09375 C 2.429688 -8.082031 2.28125 -8.078125 2.125 -8.078125 L 2.125 -4.78125 C 2.539062 -4.789062 2.914062 -4.804688 3.25 -4.828125 C 3.582031 -4.847656 3.863281 -4.863281 4.09375 -4.875 C 4.375 -4.90625 4.617188 -4.9375 4.828125 -4.96875 L 4.640625 -4.09375 C 4.359375 -4.125 4.070312 -4.160156 3.78125 -4.203125 C 3.53125 -4.222656 3.257812 -4.242188 2.96875 -4.265625 C 2.675781 -4.285156 2.394531 -4.296875 2.125 -4.296875 L 2.125 -0.53125 C 2.601562 -0.53125 3.039062 -0.550781 3.4375 -0.59375 C 3.832031 -0.632812 4.179688 -0.679688 4.484375 -0.734375 C 4.828125 -0.785156 5.140625 -0.847656 5.421875 -0.921875 L 5.25 0.046875 C 5.195312 0.046875 5.125 0.0390625 5.03125 0.03125 C 4.9375 0.03125 4.828125 0.0234375 4.703125 0.015625 C 4.585938 0.015625 4.460938 0.015625 4.328125 0.015625 C 4.203125 0.015625 4.082031 0.0078125 3.96875 0 C 3.851562 0 3.75 0 3.65625 0 C 3.5625 0 3.5 0 3.46875 0 L 0.859375 0 L 0.859375 -0.03125 C 0.878906 -0.113281 0.898438 -0.21875 0.921875 -0.34375 C 0.953125 -0.46875 0.972656 -0.617188 0.984375 -0.796875 C 1.003906 -0.984375 1.015625 -1.203125 1.015625 -1.453125 C 1.023438 -1.710938 1.03125 -2.015625 1.03125 -2.359375 L 1.03125 -6.265625 C 1.03125 -6.609375 1.023438 -6.90625 1.015625 -7.15625 C 1.015625 -7.414062 1.003906 -7.640625 0.984375 -7.828125 C 0.972656 -8.015625 0.953125 -8.171875 0.921875 -8.296875 C 0.898438 -8.421875 0.878906 -8.523438 0.859375 -8.609375 Z M 0.859375 -8.625 "/></g></g></g><g fill="#161c14" fill-opacity="1"><g transform="translate(93.966792, 27.061754)"><g><path d="M 2.125 -2.359375 C 2.125 -2.015625 2.128906 -1.710938 2.140625 -1.453125 C 2.148438 -1.203125 2.160156 -0.984375 2.171875 -0.796875 C 2.191406 -0.617188 2.210938 -0.46875 2.234375 -0.34375 C 2.253906 -0.21875 2.28125 -0.113281 2.3125 -0.03125 L 2.3125 0 L 0.859375 0 L 0.859375 -0.03125 C 0.878906 -0.113281 0.898438 -0.21875 0.921875 -0.34375 C 0.953125 -0.46875 0.972656 -0.617188 0.984375 -0.796875 C 0.992188 -0.984375 1.003906 -1.203125 1.015625 -1.453125 C 1.023438 -1.710938 1.03125 -2.015625 1.03125 -2.359375 L 1.03125 -6.265625 C 1.03125 -6.609375 1.023438 -6.90625 1.015625 -7.15625 C 1.003906 -7.414062 0.992188 -7.640625 0.984375 -7.828125 C 0.972656 -8.015625 0.953125 -8.171875 0.921875 -8.296875 C 0.898438 -8.421875 0.878906 -8.523438 0.859375 -8.609375 L 0.859375 -8.625 L 1.109375 -8.609375 C 1.191406 -8.597656 1.28125 -8.59375 1.375 -8.59375 C 1.46875 -8.59375 1.5625 -8.59375 1.65625 -8.59375 C 1.8125 -8.59375 2.023438 -8.609375 2.296875 -8.640625 C 2.566406 -8.679688 2.90625 -8.703125 3.3125 -8.703125 C 3.695312 -8.703125 4.050781 -8.648438 4.375 -8.546875 C 4.707031 -8.441406 4.992188 -8.289062 5.234375 -8.09375 C 5.472656 -7.894531 5.660156 -7.648438 5.796875 -7.359375 C 5.929688 -7.066406 6 -6.734375 6 -6.359375 C 6 -6.066406 5.960938 -5.796875 5.890625 -5.546875 C 5.816406 -5.304688 5.710938 -5.085938 5.578125 -4.890625 C 5.441406 -4.691406 5.28125 -4.515625 5.09375 -4.359375 C 4.90625 -4.203125 4.691406 -4.070312 4.453125 -3.96875 L 6.578125 -1 C 6.679688 -0.851562 6.773438 -0.722656 6.859375 -0.609375 C 6.953125 -0.503906 7.039062 -0.410156 7.125 -0.328125 C 7.207031 -0.253906 7.285156 -0.191406 7.359375 -0.140625 C 7.429688 -0.0859375 7.507812 -0.0507812 7.59375 -0.03125 L 7.59375 0 L 5.859375 0 C 5.847656 -0.0703125 5.804688 -0.171875 5.734375 -0.296875 C 5.671875 -0.429688 5.597656 -0.5625 5.515625 -0.6875 L 3.375 -3.6875 C 3.28125 -3.675781 3.1875 -3.664062 3.09375 -3.65625 C 3.007812 -3.65625 2.914062 -3.65625 2.8125 -3.65625 C 2.707031 -3.65625 2.597656 -3.65625 2.484375 -3.65625 C 2.367188 -3.664062 2.25 -3.679688 2.125 -3.703125 Z M 2.125 -4.171875 C 2.238281 -4.148438 2.347656 -4.132812 2.453125 -4.125 C 2.566406 -4.113281 2.675781 -4.109375 2.78125 -4.109375 C 3.082031 -4.109375 3.359375 -4.148438 3.609375 -4.234375 C 3.859375 -4.328125 4.070312 -4.46875 4.25 -4.65625 C 4.425781 -4.84375 4.5625 -5.070312 4.65625 -5.34375 C 4.75 -5.625 4.796875 -5.945312 4.796875 -6.3125 C 4.796875 -6.613281 4.757812 -6.882812 4.6875 -7.125 C 4.625 -7.375 4.523438 -7.582031 4.390625 -7.75 C 4.253906 -7.925781 4.082031 -8.0625 3.875 -8.15625 C 3.675781 -8.25 3.441406 -8.296875 3.171875 -8.296875 C 2.890625 -8.296875 2.664062 -8.28125 2.5 -8.25 C 2.332031 -8.21875 2.207031 -8.1875 2.125 -8.15625 Z M 2.125 -4.171875 "/></g></g></g><g fill="#161c14" fill-opacity="1"><g transform="translate(102.306017, 27.061754)"><g/></g></g><g fill="#161c14" fill-opacity="1"><g transform="translate(107.059868, 27.061754)"><g><path d="M 2.171875 -8.109375 C 2.171875 -7.660156 2.164062 -7.226562 2.15625 -6.8125 C 2.15625 -6.625 2.148438 -6.4375 2.140625 -6.25 C 2.140625 -6.0625 2.140625 -5.875 2.140625 -5.6875 C 2.140625 -5.507812 2.132812 -5.335938 2.125 -5.171875 C 2.125 -5.003906 2.125 -4.859375 2.125 -4.734375 C 2.125 -4.460938 2.125 -4.132812 2.125 -3.75 C 2.132812 -3.375 2.140625 -2.984375 2.140625 -2.578125 C 2.148438 -2.179688 2.160156 -1.796875 2.171875 -1.421875 C 2.191406 -1.054688 2.207031 -0.75 2.21875 -0.5 C 2.28125 -0.5 2.359375 -0.492188 2.453125 -0.484375 C 2.546875 -0.472656 2.644531 -0.460938 2.75 -0.453125 C 2.851562 -0.453125 2.953125 -0.445312 3.046875 -0.4375 C 3.148438 -0.4375 3.238281 -0.4375 3.3125 -0.4375 C 3.582031 -0.4375 3.863281 -0.453125 4.15625 -0.484375 C 4.457031 -0.523438 4.742188 -0.597656 5.015625 -0.703125 C 5.296875 -0.804688 5.554688 -0.945312 5.796875 -1.125 C 6.046875 -1.3125 6.257812 -1.550781 6.4375 -1.84375 C 6.625 -2.132812 6.769531 -2.484375 6.875 -2.890625 C 6.976562 -3.296875 7.03125 -3.773438 7.03125 -4.328125 C 7.03125 -4.941406 6.953125 -5.488281 6.796875 -5.96875 C 6.648438 -6.445312 6.429688 -6.847656 6.140625 -7.171875 C 5.859375 -7.503906 5.503906 -7.753906 5.078125 -7.921875 C 4.660156 -8.097656 4.175781 -8.1875 3.625 -8.1875 C 3.519531 -8.1875 3.394531 -8.179688 3.25 -8.171875 C 3.113281 -8.171875 2.976562 -8.164062 2.84375 -8.15625 C 2.71875 -8.15625 2.59375 -8.148438 2.46875 -8.140625 C 2.351562 -8.128906 2.253906 -8.117188 2.171875 -8.109375 Z M 0.859375 -8.65625 C 0.953125 -8.65625 1.039062 -8.648438 1.125 -8.640625 C 1.1875 -8.640625 1.253906 -8.632812 1.328125 -8.625 C 1.398438 -8.625 1.457031 -8.625 1.5 -8.625 C 1.582031 -8.625 1.710938 -8.628906 1.890625 -8.640625 C 2.066406 -8.648438 2.269531 -8.660156 2.5 -8.671875 C 2.726562 -8.679688 2.960938 -8.6875 3.203125 -8.6875 C 3.453125 -8.695312 3.6875 -8.703125 3.90625 -8.703125 C 4.488281 -8.703125 5.039062 -8.628906 5.5625 -8.484375 C 6.09375 -8.335938 6.554688 -8.097656 6.953125 -7.765625 C 7.347656 -7.441406 7.660156 -7.015625 7.890625 -6.484375 C 8.128906 -5.953125 8.25 -5.296875 8.25 -4.515625 C 8.25 -3.953125 8.1875 -3.445312 8.0625 -3 C 7.9375 -2.5625 7.765625 -2.171875 7.546875 -1.828125 C 7.328125 -1.484375 7.0625 -1.191406 6.75 -0.953125 C 6.445312 -0.710938 6.109375 -0.515625 5.734375 -0.359375 C 5.367188 -0.203125 4.972656 -0.0859375 4.546875 -0.015625 C 4.128906 0.0546875 3.695312 0.09375 3.25 0.09375 C 3.082031 0.09375 2.882812 0.0859375 2.65625 0.078125 C 2.4375 0.0664062 2.210938 0.0546875 1.984375 0.046875 C 1.753906 0.0351562 1.535156 0.0234375 1.328125 0.015625 C 1.128906 0.00390625 0.972656 0 0.859375 0 L 0.859375 -0.03125 C 0.878906 -0.113281 0.898438 -0.21875 0.921875 -0.34375 C 0.953125 -0.46875 0.972656 -0.617188 0.984375 -0.796875 C 1.003906 -0.984375 1.015625 -1.203125 1.015625 -1.453125 C 1.023438 -1.710938 1.03125 -2.015625 1.03125 -2.359375 L 1.03125 -6.265625 C 1.03125 -6.609375 1.023438 -6.910156 1.015625 -7.171875 C 1.015625 -7.429688 1.003906 -7.65625 0.984375 -7.84375 C 0.972656 -8.03125 0.953125 -8.1875 0.921875 -8.3125 C 0.898438 -8.4375 0.878906 -8.539062 0.859375 -8.625 Z M 0.859375 -8.65625 "/></g></g></g><g fill="#161c14" fill-opacity="1"><g transform="translate(116.915055, 27.061754)"><g><path d="M 6.828125 0 L 6.828125 -0.03125 C 6.835938 -0.0390625 6.84375 -0.0664062 6.84375 -0.109375 C 6.851562 -0.148438 6.859375 -0.1875 6.859375 -0.21875 C 6.859375 -0.34375 6.835938 -0.476562 6.796875 -0.625 C 6.765625 -0.78125 6.703125 -0.972656 6.609375 -1.203125 L 5.875 -2.828125 C 5.65625 -2.835938 5.359375 -2.84375 4.984375 -2.84375 C 4.609375 -2.84375 4.207031 -2.84375 3.78125 -2.84375 C 3.457031 -2.84375 3.144531 -2.84375 2.84375 -2.84375 C 2.550781 -2.84375 2.289062 -2.835938 2.0625 -2.828125 L 1.359375 -1.25 C 1.304688 -1.09375 1.242188 -0.925781 1.171875 -0.75 C 1.109375 -0.582031 1.078125 -0.40625 1.078125 -0.21875 C 1.078125 -0.164062 1.078125 -0.125 1.078125 -0.09375 C 1.085938 -0.0625 1.097656 -0.0390625 1.109375 -0.03125 L 1.109375 0 L -0.125 0 L -0.125 -0.03125 C -0.0507812 -0.101562 0.0351562 -0.234375 0.140625 -0.421875 C 0.253906 -0.617188 0.375 -0.863281 0.5 -1.15625 L 3.953125 -8.8125 L 4.4375 -8.8125 L 7.703125 -1.453125 C 7.773438 -1.285156 7.851562 -1.117188 7.9375 -0.953125 C 8.019531 -0.785156 8.097656 -0.640625 8.171875 -0.515625 C 8.242188 -0.390625 8.304688 -0.28125 8.359375 -0.1875 C 8.421875 -0.101562 8.460938 -0.0507812 8.484375 -0.03125 L 8.484375 0 Z M 2.9375 -3.359375 C 3.164062 -3.359375 3.398438 -3.359375 3.640625 -3.359375 C 3.890625 -3.367188 4.128906 -3.375 4.359375 -3.375 C 4.597656 -3.375 4.828125 -3.375 5.046875 -3.375 C 5.265625 -3.382812 5.460938 -3.390625 5.640625 -3.390625 L 3.9375 -7.21875 L 2.28125 -3.359375 Z M 2.9375 -3.359375 "/></g></g></g><g fill="#161c14" fill-opacity="1"><g transform="translate(126.331095, 27.061754)"><g><path d="M 1.78125 -0.53125 L 4.359375 -0.53125 C 4.828125 -0.53125 5.257812 -0.550781 5.65625 -0.59375 C 6.0625 -0.632812 6.414062 -0.679688 6.71875 -0.734375 C 7.0625 -0.785156 7.375 -0.847656 7.65625 -0.921875 L 7.359375 0.046875 C 7.316406 0.046875 7.242188 0.0390625 7.140625 0.03125 C 7.046875 0.03125 6.9375 0.0234375 6.8125 0.015625 C 6.695312 0.015625 6.570312 0.015625 6.4375 0.015625 C 6.3125 0.015625 6.191406 0.0078125 6.078125 0 C 5.960938 0 5.859375 0 5.765625 0 C 5.679688 0 5.617188 0 5.578125 0 L 0.140625 0 L 0.140625 -0.15625 L 6 -8.109375 L 3.734375 -8.109375 C 3.265625 -8.109375 2.828125 -8.082031 2.421875 -8.03125 C 2.023438 -7.988281 1.679688 -7.945312 1.390625 -7.90625 C 1.035156 -7.84375 0.722656 -7.773438 0.453125 -7.703125 L 0.859375 -8.6875 C 0.910156 -8.675781 0.984375 -8.664062 1.078125 -8.65625 C 1.179688 -8.65625 1.289062 -8.65625 1.40625 -8.65625 C 1.519531 -8.65625 1.640625 -8.648438 1.765625 -8.640625 C 1.898438 -8.640625 2.023438 -8.640625 2.140625 -8.640625 C 2.253906 -8.640625 2.359375 -8.632812 2.453125 -8.625 C 2.546875 -8.625 2.613281 -8.625 2.65625 -8.625 L 7.65625 -8.625 L 7.65625 -8.46875 Z M 1.78125 -0.53125 "/></g></g></g><g fill="#161c14" fill-opacity="1"><g transform="translate(135.301971, 27.061754)"><g><path d="M 6.828125 0 L 6.828125 -0.03125 C 6.835938 -0.0390625 6.84375 -0.0664062 6.84375 -0.109375 C 6.851562 -0.148438 6.859375 -0.1875 6.859375 -0.21875 C 6.859375 -0.34375 6.835938 -0.476562 6.796875 -0.625 C 6.765625 -0.78125 6.703125 -0.972656 6.609375 -1.203125 L 5.875 -2.828125 C 5.65625 -2.835938 5.359375 -2.84375 4.984375 -2.84375 C 4.609375 -2.84375 4.207031 -2.84375 3.78125 -2.84375 C 3.457031 -2.84375 3.144531 -2.84375 2.84375 -2.84375 C 2.550781 -2.84375 2.289062 -2.835938 2.0625 -2.828125 L 1.359375 -1.25 C 1.304688 -1.09375 1.242188 -0.925781 1.171875 -0.75 C 1.109375 -0.582031 1.078125 -0.40625 1.078125 -0.21875 C 1.078125 -0.164062 1.078125 -0.125 1.078125 -0.09375 C 1.085938 -0.0625 1.097656 -0.0390625 1.109375 -0.03125 L 1.109375 0 L -0.125 0 L -0.125 -0.03125 C -0.0507812 -0.101562 0.0351562 -0.234375 0.140625 -0.421875 C 0.253906 -0.617188 0.375 -0.863281 0.5 -1.15625 L 3.953125 -8.8125 L 4.4375 -8.8125 L 7.703125 -1.453125 C 7.773438 -1.285156 7.851562 -1.117188 7.9375 -0.953125 C 8.019531 -0.785156 8.097656 -0.640625 8.171875 -0.515625 C 8.242188 -0.390625 8.304688 -0.28125 8.359375 -0.1875 C 8.421875 -0.101562 8.460938 -0.0507812 8.484375 -0.03125 L 8.484375 0 Z M 2.9375 -3.359375 C 3.164062 -3.359375 3.398438 -3.359375 3.640625 -3.359375 C 3.890625 -3.367188 4.128906 -3.375 4.359375 -3.375 C 4.597656 -3.375 4.828125 -3.375 5.046875 -3.375 C 5.265625 -3.382812 5.460938 -3.390625 5.640625 -3.390625 L 3.9375 -7.21875 L 2.28125 -3.359375 Z M 2.9375 -3.359375 "/></g></g></g><g fill="#161c14" fill-opacity="1"><g transform="translate(54.664917, 39.919673)"><g><path d="M 7.53125 -2.160156 C 7.4375 -2.199219 7.335938 -2.160156 7.300781 -2.066406 C 6.242188 0.175781 5.222656 1.828125 4.257812 2.839844 C 3.441406 3.691406 2.707031 4.042969 2.125 3.867188 C 1.59375 3.699219 1.1875 3.078125 0.984375 2.113281 C 0.75 1.074219 0.761719 -0.257812 1 -1.742188 C 1.34375 -3.859375 2.335938 -6.855469 3.496094 -8.246094 C 3.839844 -8.652344 4.136719 -8.847656 4.3125 -8.753906 C 4.75 -8.542969 4.925781 -6.769531 3.96875 -2.476562 C 3.941406 -2.382812 4.007812 -2.289062 4.097656 -2.261719 C 4.203125 -2.246094 4.292969 -2.308594 4.3125 -2.402344 C 4.933594 -5.175781 5.464844 -8.589844 4.46875 -9.082031 C 4.230469 -9.199219 3.820312 -9.191406 3.226562 -8.476562 C 2.484375 -7.585938 1.917969 -6.261719 1.578125 -5.296875 C 1.160156 -4.15625 0.824219 -2.875 0.648438 -1.800781 C 0.128906 1.382812 0.6875 3.792969 2.023438 4.210938 C 2.152344 4.246094 2.289062 4.265625 2.429688 4.265625 C 3.894531 4.265625 5.757812 2.058594 7.613281 -1.917969 C 7.660156 -2.011719 7.625 -2.113281 7.53125 -2.160156 Z M 7.53125 -2.160156 "/></g></g></g><g fill="#161c14" fill-opacity="1"><g transform="translate(63.667733, 39.919673)"><g><path d="M 2.726562 -8.691406 C 2.660156 -8.773438 2.570312 -8.8125 2.476562 -8.800781 C 1.949219 -8.710938 1.382812 -6.734375 1.222656 -6.128906 C 0.761719 -4.359375 0.175781 -1.847656 -0.296875 0.40625 C -0.519531 1.476562 -0.695312 2.375 -0.808594 3.023438 C -0.992188 4.117188 -0.964844 4.257812 -0.789062 4.304688 C -0.769531 4.3125 -0.75 4.3125 -0.734375 4.3125 C -0.566406 4.3125 -0.480469 4.089844 -0.398438 3.847656 C -0.371094 3.757812 -0.417969 3.65625 -0.511719 3.625 C -0.519531 3.617188 -0.527344 3.617188 -0.539062 3.617188 C -0.34375 2.28125 0.453125 -1.605469 1.269531 -4.859375 C 1.269531 -4.871094 1.28125 -4.878906 1.289062 -4.886719 C 2.496094 -6.796875 2.96875 -8.320312 2.726562 -8.691406 Z M 1.585938 -6.113281 C 1.9375 -7.421875 2.253906 -8.050781 2.421875 -8.308594 C 2.382812 -7.96875 2.179688 -7.226562 1.585938 -6.113281 Z M 1.585938 -6.113281 "/></g></g></g><g fill="#161c14" fill-opacity="1"><g transform="translate(66.922691, 39.919673)"><g><path d="M 3.359375 -2.011719 C 3.273438 -2.078125 3.164062 -2.058594 3.105469 -1.984375 C 2.71875 -1.484375 2.078125 -1.066406 1.585938 -1.160156 C 1.59375 -1.222656 1.605469 -1.289062 1.605469 -1.355469 C 1.667969 -2.402344 1.34375 -2.617188 1.148438 -2.652344 C 0.925781 -2.699219 0.695312 -2.53125 0.585938 -2.253906 C 0.539062 -2.273438 0.480469 -2.273438 0.4375 -2.234375 C 0.0664062 -2.003906 -0.242188 -1.410156 -0.0742188 -0.769531 C 0.0351562 -0.390625 0.296875 -0.148438 0.640625 -0.148438 C 0.964844 -0.148438 1.308594 -0.390625 1.484375 -0.816406 C 2.132812 -0.675781 2.914062 -1.160156 3.386719 -1.761719 C 3.449219 -1.847656 3.433594 -1.957031 3.359375 -2.011719 Z M 0.648438 -0.5 C 0.640625 -0.5 0.640625 -0.5 0.640625 -0.5 C 0.40625 -0.511719 0.304688 -0.734375 0.277344 -0.863281 C 0.183594 -1.179688 0.257812 -1.613281 0.519531 -1.855469 C 0.539062 -1.539062 0.714844 -1.195312 1.160156 -0.957031 C 1.03125 -0.660156 0.808594 -0.5 0.648438 -0.5 Z M 1.253906 -1.371094 C 1.242188 -1.355469 1.242188 -1.335938 1.242188 -1.316406 C 0.890625 -1.550781 0.835938 -1.847656 0.898438 -2.078125 C 0.945312 -2.226562 1.039062 -2.300781 1.085938 -2.300781 C 1.132812 -2.289062 1.289062 -2.113281 1.253906 -1.371094 Z M 1.253906 -1.371094 "/></g></g></g><g fill="#161c14" fill-opacity="1"><g transform="translate(71.735132, 39.919673)"><g><path d="M 7.828125 -5.472656 C 7.707031 -5.640625 7.167969 -5.742188 1.410156 -5.613281 C 1.59375 -6.363281 1.761719 -7.039062 1.910156 -7.585938 C 1.9375 -7.6875 1.882812 -7.78125 1.789062 -7.808594 C 1.699219 -7.835938 1.59375 -7.78125 1.566406 -7.6875 C 1.410156 -7.105469 1.234375 -6.398438 1.039062 -5.601562 C 0.527344 -5.59375 -0.0273438 -5.582031 -0.628906 -5.566406 C -1.457031 -5.546875 -2.105469 -5.527344 -2.355469 -5.527344 C -2.457031 -5.527344 -2.542969 -5.445312 -2.542969 -5.351562 C -2.542969 -5.25 -2.457031 -5.167969 -2.355469 -5.167969 C -2.097656 -5.175781 -1.445312 -5.183594 -0.621094 -5.210938 C -0.183594 -5.222656 0.351562 -5.230469 0.957031 -5.25 C 0.554688 -3.5625 0.101562 -1.539062 -0.304688 0.4375 C -0.601562 1.882812 -0.84375 3.136719 -1 4.054688 C -1.085938 4.535156 -1.140625 4.914062 -1.167969 5.175781 C -1.207031 5.527344 -1.222656 5.730469 -1.046875 5.796875 C -1.019531 5.796875 -1 5.804688 -0.972656 5.804688 C -0.816406 5.804688 -0.734375 5.582031 -0.660156 5.378906 C -0.621094 5.285156 -0.667969 5.183594 -0.761719 5.148438 C -0.777344 5.148438 -0.789062 5.136719 -0.808594 5.136719 C -0.714844 4.414062 -0.4375 2.792969 0.101562 0.230469 C 0.5 -1.707031 0.9375 -3.644531 1.328125 -5.257812 C 3.875 -5.316406 7.1875 -5.359375 7.566406 -5.230469 C 7.632812 -5.175781 7.714844 -5.175781 7.789062 -5.222656 C 7.863281 -5.277344 7.882812 -5.390625 7.828125 -5.472656 Z M 7.828125 -5.472656 "/></g></g></g><g fill="#161c14" fill-opacity="1"><g transform="translate(74.813942, 39.919673)"><g><path d="M 4.386719 -2.113281 C 4.304688 -2.171875 4.191406 -2.140625 4.144531 -2.058594 C 2.828125 0.0664062 2.363281 0.0195312 2.320312 0.0078125 C 2.226562 -0.0195312 2.125 -0.203125 2.097656 -0.660156 C 2.085938 -0.863281 2.039062 -1.476562 1.632812 -1.53125 C 1.160156 -1.59375 0.59375 -0.769531 0.0820312 0.296875 C 0.398438 -1.113281 0.851562 -3.050781 1.1875 -4.425781 C 2.429688 -6.660156 3.0625 -8.339844 2.800781 -8.699219 C 2.746094 -8.785156 2.652344 -8.8125 2.558594 -8.792969 C 2.160156 -8.71875 1.539062 -7.363281 1.121094 -5.648438 C 1.105469 -5.582031 -0.554688 1.195312 -0.613281 2.03125 C -0.613281 2.125 -0.554688 2.199219 -0.464844 2.214844 C -0.453125 2.214844 -0.445312 2.214844 -0.4375 2.214844 C -0.363281 2.214844 -0.289062 2.171875 -0.257812 2.105469 C 0.546875 -0.214844 1.335938 -1.179688 1.566406 -1.179688 C 1.578125 -1.179688 1.578125 -1.179688 1.578125 -1.179688 C 1.613281 -1.179688 1.714844 -1.066406 1.742188 -0.640625 C 1.753906 -0.417969 1.800781 0.242188 2.226562 0.351562 C 2.410156 0.398438 2.957031 0.539062 4.441406 -1.875 C 4.5 -1.957031 4.46875 -2.066406 4.386719 -2.113281 Z M 2.496094 -8.28125 C 2.421875 -7.910156 2.160156 -7.113281 1.539062 -5.863281 C 1.890625 -7.199219 2.273438 -7.96875 2.496094 -8.28125 Z M 2.496094 -8.28125 "/></g></g></g><g fill="#161c14" fill-opacity="1"><g transform="translate(80.655436, 39.919673)"><g><path d="M 2.707031 -2.105469 C 2.625 -2.160156 2.523438 -2.132812 2.46875 -2.050781 C 1.847656 -1.046875 0.808594 -0.101562 0.492188 -0.230469 C 0.453125 -0.25 0.15625 -0.425781 0.566406 -1.992188 C 0.585938 -2.097656 0.527344 -2.1875 0.4375 -2.214844 C 0.332031 -2.234375 0.242188 -2.179688 0.214844 -2.085938 C -0.121094 -0.777344 -0.0742188 -0.0820312 0.34375 0.09375 C 0.40625 0.121094 0.472656 0.128906 0.539062 0.128906 C 1.234375 0.128906 2.300781 -1.113281 2.773438 -1.863281 C 2.820312 -1.949219 2.792969 -2.058594 2.707031 -2.105469 Z M 0.519531 -2.855469 C 0.992188 -2.828125 0.984375 -3.421875 0.601562 -3.292969 C 0.40625 -3.238281 0.15625 -2.875 0.519531 -2.855469 Z M 0.519531 -2.855469 "/></g></g></g><g fill="#161c14" fill-opacity="1"><g transform="translate(84.846738, 39.919673)"><g><path d="M 3.730469 -2.066406 C 3.644531 -2.113281 3.535156 -2.085938 3.488281 -1.992188 C 3.265625 -1.613281 2.679688 -0.585938 2.347656 -0.621094 C 2.28125 -0.628906 2.097656 -0.722656 1.910156 -1.371094 C 1.78125 -1.828125 1.605469 -2.253906 1.261719 -2.273438 C 1.011719 -2.289062 0.734375 -2.097656 0.304688 -1.296875 C 0.417969 -1.699219 0.539062 -2.097656 0.628906 -2.421875 C 0.667969 -2.542969 0.695312 -2.644531 0.722656 -2.746094 C 0.75 -2.839844 0.695312 -2.941406 0.601562 -2.96875 C 0.511719 -2.996094 0.40625 -2.941406 0.378906 -2.839844 C 0.351562 -2.746094 0.324219 -2.632812 0.289062 -2.523438 C 0.046875 -1.699219 -0.316406 -0.445312 -0.40625 0.316406 C -0.417969 0.398438 -0.363281 0.480469 -0.277344 0.5 C -0.257812 0.511719 -0.25 0.511719 -0.230469 0.511719 C -0.15625 0.511719 -0.09375 0.464844 -0.0664062 0.398438 C 0.808594 -1.773438 1.160156 -1.917969 1.242188 -1.917969 C 1.261719 -1.917969 1.390625 -1.882812 1.566406 -1.269531 C 1.753906 -0.628906 1.992188 -0.304688 2.308594 -0.269531 C 2.78125 -0.214844 3.210938 -0.796875 3.792969 -1.816406 C 3.847656 -1.910156 3.8125 -2.011719 3.730469 -2.066406 Z M 3.730469 -2.066406 "/></g></g></g><g fill="#161c14" fill-opacity="1"><g transform="translate(90.002194, 39.919673)"><g><path d="M 4.246094 -2.050781 C 4.191406 -2.132812 4.082031 -2.152344 4.007812 -2.105469 C 3.359375 -1.6875 2.523438 -1.140625 1.660156 -0.4375 C 1.753906 -1.074219 1.847656 -1.753906 1.9375 -2.476562 C 1.949219 -2.570312 1.890625 -2.644531 1.816406 -2.671875 C 1.734375 -2.699219 1.640625 -2.660156 1.605469 -2.585938 C 1.445312 -2.328125 1.011719 -1.660156 0.648438 -1.179688 C 0.5 -0.992188 0.417969 -0.917969 0.371094 -0.890625 C 0.277344 -1.1875 0.566406 -2.511719 1.148438 -3.03125 C 1.382812 -3.246094 1.59375 -3.246094 1.828125 -3.042969 C 1.902344 -2.976562 2.011719 -2.976562 2.078125 -3.050781 C 2.140625 -3.125 2.132812 -3.238281 2.066406 -3.300781 C 1.699219 -3.636719 1.363281 -3.582031 1.148438 -3.46875 C 0.398438 -3.097656 -0.0546875 -1.558594 0.0078125 -0.9375 C 0.0273438 -0.660156 0.15625 -0.554688 0.257812 -0.527344 C 0.511719 -0.464844 0.75 -0.722656 0.925781 -0.964844 C 1.113281 -1.207031 1.308594 -1.484375 1.484375 -1.734375 C 1.410156 -1.148438 1.328125 -0.601562 1.242188 -0.0820312 C 0.25 0.777344 -0.742188 1.863281 -1.492188 3.238281 C -2.058594 4.257812 -2.246094 5.121094 -2.300781 5.65625 C -2.375 6.363281 -2.273438 6.945312 -2.011719 7.261719 C -1.875 7.4375 -1.699219 7.53125 -1.503906 7.53125 C -1.445312 7.53125 -1.382812 7.523438 -1.316406 7.503906 C -0.425781 7.253906 0.742188 5.136719 1.566406 0.101562 C 2.53125 -0.722656 3.476562 -1.335938 4.191406 -1.800781 C 4.277344 -1.855469 4.304688 -1.964844 4.246094 -2.050781 Z M -1.410156 7.160156 C -1.539062 7.199219 -1.640625 7.160156 -1.734375 7.039062 C -2.085938 6.605469 -2.140625 5.148438 -1.1875 3.414062 C -0.539062 2.234375 0.296875 1.269531 1.140625 0.480469 C 0.296875 5.34375 -0.816406 6.992188 -1.410156 7.160156 Z M -1.410156 7.160156 "/></g></g></g><g fill="#161c14" fill-opacity="1"><g transform="translate(95.667545, 39.919673)"><g/></g></g><g fill="#161c14" fill-opacity="1"><g transform="translate(100.359465, 39.919673)"><g><path d="M 9.050781 -2.113281 C 8.996094 -2.199219 8.886719 -2.214844 8.8125 -2.160156 C 7.863281 -1.492188 7.011719 -0.851562 6.234375 -0.25 C 5.703125 -1.121094 4.292969 -1.699219 2.410156 -2.457031 C 2.171875 -2.550781 1.929688 -2.652344 1.679688 -2.753906 C 0.9375 -3.050781 0.675781 -3.515625 0.882812 -4.15625 C 1.160156 -5.046875 2.328125 -6.222656 3.914062 -7.234375 C 5.425781 -8.191406 6.910156 -8.726562 7.605469 -8.570312 C 7.828125 -8.523438 8.078125 -8.394531 8.003906 -7.875 C 7.984375 -7.78125 8.058594 -7.6875 8.152344 -7.671875 C 8.253906 -7.660156 8.347656 -7.726562 8.355469 -7.828125 C 8.46875 -8.617188 7.984375 -8.847656 7.6875 -8.921875 C 6 -9.304688 1.222656 -6.4375 0.539062 -4.265625 C 0.289062 -3.449219 0.640625 -2.792969 1.539062 -2.421875 C 1.789062 -2.320312 2.039062 -2.214844 2.28125 -2.125 C 4.304688 -1.308594 5.546875 -0.769531 5.953125 -0.0351562 C 2.671875 2.53125 1 4.367188 1.28125 5.15625 C 1.328125 5.285156 1.464844 5.480469 1.855469 5.480469 C 1.882812 5.480469 1.917969 5.480469 1.949219 5.480469 C 3.191406 5.390625 5.898438 3.535156 6.417969 0.910156 C 6.484375 0.601562 6.464844 0.324219 6.390625 0.0742188 C 7.179688 -0.527344 8.050781 -1.179688 9.015625 -1.863281 C 9.097656 -1.929688 9.117188 -2.039062 9.050781 -2.113281 Z M 6.066406 0.84375 C 5.566406 3.347656 2.941406 5.046875 1.917969 5.128906 C 1.828125 5.128906 1.652344 5.128906 1.625 5.035156 C 1.519531 4.757812 2.039062 3.96875 2.949219 3.050781 C 3.71875 2.261719 4.765625 1.34375 6.074219 0.316406 C 6.113281 0.480469 6.101562 0.648438 6.066406 0.84375 Z M 6.066406 0.84375 "/></g></g></g><g fill="#161c14" fill-opacity="1"><g transform="translate(110.901227, 39.919673)"><g><path d="M 7.828125 -5.472656 C 7.707031 -5.640625 7.167969 -5.742188 1.410156 -5.613281 C 1.59375 -6.363281 1.761719 -7.039062 1.910156 -7.585938 C 1.9375 -7.6875 1.882812 -7.78125 1.789062 -7.808594 C 1.699219 -7.835938 1.59375 -7.78125 1.566406 -7.6875 C 1.410156 -7.105469 1.234375 -6.398438 1.039062 -5.601562 C 0.527344 -5.59375 -0.0273438 -5.582031 -0.628906 -5.566406 C -1.457031 -5.546875 -2.105469 -5.527344 -2.355469 -5.527344 C -2.457031 -5.527344 -2.542969 -5.445312 -2.542969 -5.351562 C -2.542969 -5.25 -2.457031 -5.167969 -2.355469 -5.167969 C -2.097656 -5.175781 -1.445312 -5.183594 -0.621094 -5.210938 C -0.183594 -5.222656 0.351562 -5.230469 0.957031 -5.25 C 0.554688 -3.5625 0.101562 -1.539062 -0.304688 0.4375 C -0.601562 1.882812 -0.84375 3.136719 -1 4.054688 C -1.085938 4.535156 -1.140625 4.914062 -1.167969 5.175781 C -1.207031 5.527344 -1.222656 5.730469 -1.046875 5.796875 C -1.019531 5.796875 -1 5.804688 -0.972656 5.804688 C -0.816406 5.804688 -0.734375 5.582031 -0.660156 5.378906 C -0.621094 5.285156 -0.667969 5.183594 -0.761719 5.148438 C -0.777344 5.148438 -0.789062 5.136719 -0.808594 5.136719 C -0.714844 4.414062 -0.4375 2.792969 0.101562 0.230469 C 0.5 -1.707031 0.9375 -3.644531 1.328125 -5.257812 C 3.875 -5.316406 7.1875 -5.359375 7.566406 -5.230469 C 7.632812 -5.175781 7.714844 -5.175781 7.789062 -5.222656 C 7.863281 -5.277344 7.882812 -5.390625 7.828125 -5.472656 Z M 7.828125 -5.472656 "/></g></g></g><g fill="#161c14" fill-opacity="1"><g transform="translate(113.980037, 39.919673)"><g><path d="M 3.359375 -2.011719 C 3.273438 -2.078125 3.164062 -2.058594 3.105469 -1.984375 C 2.71875 -1.484375 2.078125 -1.066406 1.585938 -1.160156 C 1.59375 -1.222656 1.605469 -1.289062 1.605469 -1.355469 C 1.667969 -2.402344 1.34375 -2.617188 1.148438 -2.652344 C 0.925781 -2.699219 0.695312 -2.53125 0.585938 -2.253906 C 0.539062 -2.273438 0.480469 -2.273438 0.4375 -2.234375 C 0.0664062 -2.003906 -0.242188 -1.410156 -0.0742188 -0.769531 C 0.0351562 -0.390625 0.296875 -0.148438 0.640625 -0.148438 C 0.964844 -0.148438 1.308594 -0.390625 1.484375 -0.816406 C 2.132812 -0.675781 2.914062 -1.160156 3.386719 -1.761719 C 3.449219 -1.847656 3.433594 -1.957031 3.359375 -2.011719 Z M 0.648438 -0.5 C 0.640625 -0.5 0.640625 -0.5 0.640625 -0.5 C 0.40625 -0.511719 0.304688 -0.734375 0.277344 -0.863281 C 0.183594 -1.179688 0.257812 -1.613281 0.519531 -1.855469 C 0.539062 -1.539062 0.714844 -1.195312 1.160156 -0.957031 C 1.03125 -0.660156 0.808594 -0.5 0.648438 -0.5 Z M 1.253906 -1.371094 C 1.242188 -1.355469 1.242188 -1.335938 1.242188 -1.316406 C 0.890625 -1.550781 0.835938 -1.847656 0.898438 -2.078125 C 0.945312 -2.226562 1.039062 -2.300781 1.085938 -2.300781 C 1.132812 -2.289062 1.289062 -2.113281 1.253906 -1.371094 Z M 1.253906 -1.371094 "/></g></g></g><g fill="#161c14" fill-opacity="1"><g transform="translate(118.792477, 39.919673)"><g><path d="M 4.070312 -2.097656 C 3.980469 -2.140625 3.867188 -2.105469 3.832031 -2.011719 C 2.765625 0.230469 1.753906 1.382812 1.53125 1.34375 C 1.511719 1.335938 1.1875 1.019531 2.234375 -2.199219 C 2.261719 -2.28125 2.328125 -2.476562 2.179688 -2.578125 C 2.039062 -2.691406 1.882812 -2.585938 1.625 -2.410156 C 1.34375 -2.234375 0.964844 -1.984375 0.667969 -2.023438 C 1.613281 -3.65625 1.519531 -4.015625 1.308594 -4.15625 C 0.972656 -4.351562 0.492188 -3.785156 0.269531 -3.460938 C -0.183594 -2.753906 -0.175781 -2.113281 0.304688 -1.789062 C 0.796875 -1.445312 1.4375 -1.863281 1.816406 -2.113281 C 1.828125 -2.125 1.828125 -2.125 1.835938 -2.132812 C 1.476562 -0.992188 1.242188 -0.09375 1.160156 0.527344 C 1.058594 1.214844 1.132812 1.578125 1.390625 1.679688 C 1.4375 1.6875 1.476562 1.699219 1.519531 1.699219 C 2.261719 1.699219 3.550781 -0.585938 4.15625 -1.855469 C 4.191406 -1.949219 4.15625 -2.058594 4.070312 -2.097656 Z M 0.324219 -2.734375 C 0.453125 -3.238281 0.890625 -3.699219 1.085938 -3.8125 C 1.066406 -3.664062 0.964844 -3.246094 0.371094 -2.214844 C 0.304688 -2.320312 0.257812 -2.476562 0.324219 -2.734375 Z M 0.324219 -2.734375 "/></g></g></g><g fill="#161c14" fill-opacity="1"><g transform="translate(124.337307, 39.919673)"><g><path d="M 3.136719 -2.066406 C 3.050781 -2.125 2.941406 -2.105469 2.882812 -2.023438 C 2.1875 -1.046875 1.625 -0.4375 1.066406 -0.0351562 C 0.789062 0.15625 0.519531 0.195312 0.34375 0.0664062 C 0.230469 -0.0195312 -0.109375 -0.390625 0.289062 -1.6875 C 1.1875 -2.429688 1.679688 -3.136719 1.550781 -3.507812 C 1.503906 -3.617188 1.390625 -3.691406 1.269531 -3.691406 C 0.898438 -3.683594 0.332031 -3.042969 -0.0351562 -1.847656 C -0.492188 -0.371094 -0.121094 0.167969 0.140625 0.351562 C 0.269531 0.453125 0.417969 0.5 0.585938 0.5 C 0.796875 0.5 1.039062 0.417969 1.269531 0.25 C 1.863281 -0.175781 2.449219 -0.808594 3.171875 -1.816406 C 3.226562 -1.902344 3.210938 -2.011719 3.136719 -2.066406 Z M 1.195312 -3.300781 C 1.160156 -3.152344 1 -2.855469 0.566406 -2.410156 C 0.808594 -2.949219 1.066406 -3.210938 1.195312 -3.300781 Z M 1.195312 -3.300781 "/></g></g></g></svg>